<svg width="268" height="97" viewBox="0 0 268 97" fill="none" xmlns="http://www.w3.org/2000/svg">
<path d="M258.074 96.1699H9.92593C4.46915 96.1699 0 90.7599 0 84.1544V12.0611C0 5.45561 4.46915 0.0456161 9.92593 0.0456161H258.074C263.531 0.0456161 268 5.45561 268 12.0611V84.1544C268 90.7599 263.531 96.1699 258.074 96.1699Z" fill="black"/>
<path d="M258.074 1.9711C262.67 1.9711 266.409 6.49796 266.409 12.0611V84.1544C266.409 89.7176 262.67 94.2444 258.074 94.2444H9.92593C5.33022 94.2444 1.59063 89.7176 1.59063 84.1544V12.0611C1.59063 6.49796 5.33022 1.9711 9.92593 1.9711H258.074ZM258.074 0.0456161H9.92593C4.46915 0.0456161 0 5.45561 0 12.0611V84.1544C0 90.7599 4.46915 96.1699 9.92593 96.1699H258.074C263.531 96.1699 268 90.7599 268 84.1544V12.0611C268 5.45561 263.531 0.0456161 258.074 0.0456161Z" fill="#292D32"/>
<path d="M20.7151 18.1618C20.1319 18.9008 19.7944 20.0513 19.7944 21.5412V74.686C19.7944 76.1759 20.1319 77.3264 20.7151 78.0653L20.859 78.2275L45.4604 48.459V47.7561L20.859 17.9876L20.7151 18.1618Z" fill="url(#paint0_linear_360_3900)"/>
<path d="M53.6518 58.3867L45.4604 48.4589V47.756L53.6617 37.8281L53.8454 37.9573L63.5579 44.6469C66.3297 46.5454 66.3297 49.6694 63.5579 51.5799L53.8454 58.2575L53.6518 58.3867Z" fill="url(#paint1_linear_360_3900)"/>
<path d="M53.8456 58.2576L45.4607 48.1074L20.7153 78.0652C21.636 79.2367 23.1373 79.3779 24.8445 78.2064L53.8456 58.2576Z" fill="url(#paint2_linear_360_3900)"/>
<path d="M53.8456 37.9583L24.8445 18.0095C23.1373 16.85 21.636 16.9912 20.7153 18.1627L45.4607 48.1084L53.8456 37.9583Z" fill="url(#paint3_linear_360_3900)"/>
<path d="M94.1329 24.6634C94.1329 26.67 93.6366 28.2771 92.6589 29.4757C91.5348 30.8965 90.0707 31.6114 88.2766 31.6114C86.5619 31.6114 85.0978 30.8845 83.8968 29.4516C82.6933 27.9978 82.0928 26.2135 82.0928 24.0777C82.0928 21.9419 82.6933 20.1576 83.8968 18.7158C85.0978 17.2709 86.5619 16.5439 88.2766 16.5439C89.1303 16.5439 89.9442 16.7572 90.7209 17.1537C91.4951 17.5533 92.1254 18.0939 92.582 18.7608L91.5447 20.0285C90.7482 18.89 89.6638 18.3283 88.2766 18.3283C87.026 18.3283 85.9416 18.8569 85.0209 19.9233C84.1102 20.9927 83.6536 22.3775 83.6536 24.0777C83.6536 25.7779 84.1102 27.1747 85.0209 28.2441C85.9416 29.2984 87.026 29.8391 88.2766 29.8391C89.6042 29.8391 90.7209 29.2984 91.6018 28.2321C92.1825 27.5261 92.5125 26.5529 92.5994 25.3093H88.2766V23.573H94.0436C94.1131 23.9485 94.1329 24.312 94.1329 24.6634Z" fill="white" stroke="white" stroke-width="0.16" stroke-miterlimit="10"/>
<path d="M103.283 18.6433H97.8656V23.2092H102.749V24.9455H97.8656V29.5114H103.283V31.2807H96.332V16.874H103.283V18.6433Z" fill="white" stroke="white" stroke-width="0.16" stroke-miterlimit="10"/>
<path d="M109.739 31.2807H108.206V18.6433H104.883V16.874H113.064V18.6433H109.739V31.2807Z" fill="white" stroke="white" stroke-width="0.16" stroke-miterlimit="10"/>
<path d="M118.985 31.2807V16.874H120.516V31.2807H118.985Z" fill="white" stroke="white" stroke-width="0.16" stroke-miterlimit="10"/>
<path d="M127.303 31.2807H125.781V18.6433H122.446V16.874H130.638V18.6433H127.303V31.2807Z" fill="white" stroke="white" stroke-width="0.16" stroke-miterlimit="10"/>
<path d="M146.128 29.4276C144.954 30.8845 143.5 31.6114 141.765 31.6114C140.021 31.6114 138.567 30.8845 137.393 29.4276C136.222 27.9737 135.639 26.1894 135.639 24.0777C135.639 21.966 136.222 20.1817 137.393 18.7278C138.567 17.2709 140.021 16.5439 141.765 16.5439C143.49 16.5439 144.944 17.2709 146.118 18.7398C147.299 20.2057 147.882 21.978 147.882 24.0777C147.882 26.1894 147.299 27.9737 146.128 29.4276ZM138.527 28.22C139.411 29.2984 140.485 29.8391 141.765 29.8391C143.036 29.8391 144.12 29.2984 144.994 28.22C145.875 27.1417 146.321 25.7569 146.321 24.0777C146.321 22.3985 145.875 21.0137 144.994 19.9353C144.12 18.8569 143.036 18.3162 141.765 18.3162C140.485 18.3162 139.411 18.8569 138.527 19.9353C137.646 21.0137 137.2 22.3985 137.2 24.0777C137.2 25.7569 137.646 27.1417 138.527 28.22Z" fill="white" stroke="white" stroke-width="0.16" stroke-miterlimit="10"/>
<path d="M150.033 31.2807V16.874H151.894L157.681 28.0785H157.748L157.681 25.3089V16.874H159.212V31.2807H157.614L151.554 19.5234H151.487L151.554 22.305V31.2807H150.033Z" fill="white" stroke="white" stroke-width="0.16" stroke-miterlimit="10"/>
<path d="M135.26 52.3202C130.598 52.3202 126.788 56.6157 126.788 62.5424C126.788 68.421 130.598 72.7616 135.26 72.7616C139.933 72.7616 143.742 68.421 143.742 62.5424C143.742 56.6157 139.933 52.3202 135.26 52.3202ZM135.26 68.7364C132.702 68.7364 130.501 66.1801 130.501 62.5424C130.501 58.8566 132.702 56.3454 135.26 56.3454C137.819 56.3454 140.03 58.8566 140.03 62.5424C140.03 66.1801 137.819 68.7364 135.26 68.7364ZM116.776 52.3202C112.103 52.3202 108.304 56.6157 108.304 62.5424C108.304 68.421 112.103 72.7616 116.776 72.7616C121.446 72.7616 125.247 68.421 125.247 62.5424C125.247 56.6157 121.446 52.3202 116.776 52.3202ZM116.776 68.7364C114.215 68.7364 112.006 66.1801 112.006 62.5424C112.006 58.8566 114.215 56.3454 116.776 56.3454C119.334 56.3454 121.535 58.8566 121.535 62.5424C121.535 66.1801 119.334 68.7364 116.776 68.7364ZM94.7799 55.4532V59.7968H103.348C103.098 62.224 102.428 64.0083 101.4 65.2519C100.15 66.7538 98.2018 68.421 94.7799 68.421C89.5067 68.421 85.3775 63.2693 85.3775 56.8861C85.3775 50.5028 89.5067 45.3512 94.7799 45.3512C97.6311 45.3512 99.7056 46.6999 101.237 48.4482L103.765 45.3872C101.624 42.912 98.775 41.0106 94.7799 41.0106C87.5488 41.0106 81.4717 48.1328 81.4717 56.8861C81.4717 65.6394 87.5488 72.7616 94.7799 72.7616C98.6882 72.7616 101.624 71.2116 103.932 68.3038C106.296 65.4411 107.033 61.4159 107.033 58.1657C107.033 57.1564 106.964 56.2282 106.84 55.4532H94.7799ZM184.724 58.8206C184.026 56.5346 181.875 52.3202 177.493 52.3202C173.15 52.3202 169.534 56.4625 169.534 62.5424C169.534 68.2678 173.113 72.7616 177.909 72.7616C181.788 72.7616 184.026 69.8989 184.947 68.2318L182.068 65.9098C181.108 67.61 179.8 68.7364 177.909 68.7364C176.031 68.7364 174.684 67.6941 173.82 65.6394L185.113 59.9831L184.724 58.8206ZM173.21 62.224C173.113 58.2829 175.738 56.2643 177.619 56.2643C179.093 56.2643 180.344 57.1564 180.761 58.4331L173.21 62.224ZM164.031 72.1398H167.743V42.101H164.031V72.1398ZM157.951 54.5971H157.827C156.993 53.4016 155.402 52.3202 153.387 52.3202C149.159 52.3202 145.293 56.814 145.293 62.5754C145.293 68.3038 149.159 72.7616 153.387 72.7616C155.402 72.7616 156.993 71.6712 157.827 70.4396H157.951V71.9055C157.951 75.8136 156.226 77.9133 153.445 77.9133C151.176 77.9133 149.769 75.9307 149.189 74.2636L145.96 75.8947C146.891 78.6042 149.355 81.9385 153.445 81.9385C157.797 81.9385 161.47 78.8385 161.47 71.2957V52.942H157.951V54.5971ZM153.705 68.7364C151.147 68.7364 149.005 66.1441 149.005 62.5754C149.005 58.9738 151.147 56.3454 153.705 56.3454C156.226 56.3454 158.214 58.9738 158.214 62.5754C158.214 66.1441 156.226 68.7364 153.705 68.7364ZM202.104 42.101H193.225V72.1398H196.928V60.7581H202.104C206.216 60.7581 210.248 57.1564 210.248 51.428C210.248 45.7026 206.206 42.101 202.104 42.101ZM202.201 56.5797H196.928V46.2794H202.201C204.965 46.2794 206.543 49.058 206.543 51.428C206.543 53.753 204.965 56.5797 202.201 56.5797ZM225.087 52.2631C222.412 52.2631 219.631 53.693 218.487 56.862L221.772 58.5292C222.479 56.862 223.78 56.3213 225.154 56.3213C227.075 56.3213 229.023 57.7182 229.053 60.1843V60.4998C228.383 60.0311 226.948 59.3373 225.184 59.3373C221.646 59.3373 218.04 61.6953 218.04 66.096C218.04 70.1212 220.938 72.7135 224.197 72.7135C226.688 72.7135 228.063 71.3528 228.926 69.7697H229.053V72.0917H232.629V60.5688C232.629 55.243 229.343 52.2631 225.087 52.2631ZM224.641 68.7244C223.43 68.7244 221.742 67.9975 221.742 66.1801C221.742 63.8551 223.847 62.9629 225.668 62.9629C227.298 62.9629 228.063 63.3985 229.053 63.9722C228.762 66.7538 226.785 68.7244 224.641 68.7244ZM245.656 52.921L241.401 65.9428H241.274L236.874 52.921H232.882L239.492 71.1185L235.72 81.2446H239.589L249.776 52.921H245.656ZM212.283 72.1398H215.995V42.101H212.283V72.1398Z" fill="white"/>
<defs>
<linearGradient id="paint0_linear_360_3900" x1="43.2761" y1="75.2394" x2="3.67117" y2="42.5222" gradientUnits="userSpaceOnUse">
<stop stop-color="#00A0FF"/>
<stop offset="0.0066" stop-color="#00A1FF"/>
<stop offset="0.2601" stop-color="#00BEFF"/>
<stop offset="0.5122" stop-color="#00D2FF"/>
<stop offset="0.7604" stop-color="#00DFFF"/>
<stop offset="1" stop-color="#00E3FF"/>
</linearGradient>
<linearGradient id="paint1_linear_360_3900" x1="67.1673" y1="48.1041" x2="19.1319" y2="48.1041" gradientUnits="userSpaceOnUse">
<stop stop-color="#FFE000"/>
<stop offset="0.4087" stop-color="#FFBD00"/>
<stop offset="0.7754" stop-color="#FFA500"/>
<stop offset="1" stop-color="#FF9C00"/>
</linearGradient>
<linearGradient id="paint2_linear_360_3900" x1="49.2861" y1="42.5897" x2="-4.42137" y2="-1.7776" gradientUnits="userSpaceOnUse">
<stop stop-color="#FF3A44"/>
<stop offset="1" stop-color="#C31162"/>
</linearGradient>
<linearGradient id="paint3_linear_360_3900" x1="14.4864" y1="95.7471" x2="38.4692" y2="75.9354" gradientUnits="userSpaceOnUse">
<stop stop-color="#32A071"/>
<stop offset="0.0685" stop-color="#2DA771"/>
<stop offset="0.4762" stop-color="#15CF74"/>
<stop offset="0.8009" stop-color="#06E775"/>
<stop offset="1" stop-color="#00F076"/>
</linearGradient>
</defs>
</svg>
