<svg width="282" height="94" viewBox="0 0 282 94" fill="none" xmlns="http://www.w3.org/2000/svg">
<path d="M280.434 83.1592C280.434 88.1686 276.844 92.2263 272.403 92.2263H9.6077C5.16944 92.2263 1.56689 88.1686 1.56689 83.1592V10.8523C1.56689 5.84533 5.16944 1.77344 9.6077 1.77344H272.401C276.844 1.77344 280.431 5.84533 280.431 10.8523L280.434 83.1592Z" fill="black"/>
<path d="M271.556 1.88294C276.391 1.88294 280.326 6.30975 280.326 11.75V82.25C280.326 87.6903 276.391 92.1171 271.556 92.1171H10.4444C5.60867 92.1171 1.67372 87.6903 1.67372 82.25V11.75C1.67372 6.30975 5.60867 1.88294 10.4444 1.88294H271.556ZM271.556 7.62939e-06H10.4444C4.70261 7.62939e-06 0 5.29044 0 11.75V82.25C0 88.7096 4.70261 94 10.4444 94H271.556C277.297 94 282 88.7096 282 82.25V11.75C282 5.29044 277.297 7.62939e-06 271.556 7.62939e-06Z" fill="#292D32"/>
<path d="M62.9339 46.4928C62.8733 38.9187 68.4465 35.2339 68.7013 35.0624C65.545 29.8853 60.6528 29.178 58.9337 29.1216C54.8248 28.6351 50.8392 31.8876 48.7462 31.8876C46.6113 31.8876 43.3881 29.1686 39.9143 29.2485C35.4441 29.326 31.2621 32.2377 28.9685 36.7591C24.2351 45.9781 27.7653 59.5259 32.3003 66.9777C34.5689 70.6273 37.2197 74.7022 40.6893 74.5588C44.0837 74.4014 45.3517 72.1242 49.448 72.1242C53.5067 72.1242 54.6974 74.5588 58.236 74.4672C61.879 74.4014 64.1726 70.8012 66.3618 67.1187C68.9833 62.9357 70.0361 58.8162 70.0779 58.6047C69.9922 58.5718 63.0028 55.5709 62.9339 46.4928Z" fill="white"/>
<path d="M56.2494 24.2195C58.0751 21.651 59.3243 18.1565 58.9775 14.6104C56.3351 14.742 53.0305 16.6666 51.1275 19.1788C49.4438 21.3925 47.9398 25.0209 48.3284 28.4331C51.2967 28.6822 54.3444 26.7481 56.2494 24.2195Z" fill="white"/>
<path d="M102.46 23.5209C102.46 26.2869 101.723 28.369 100.25 29.7672C98.886 31.0574 96.9475 31.7036 94.4366 31.7036C93.1917 31.7036 92.1263 31.6425 91.2344 31.5203V16.4075C92.3979 16.196 93.6512 16.0879 95.0048 16.0879C97.3966 16.0879 99.1993 16.673 100.415 17.8433C101.777 19.1664 102.46 21.0581 102.46 23.5209ZM100.152 23.5891C100.152 21.796 99.7299 20.4213 98.886 19.4625C98.0421 18.506 96.8096 18.0266 95.1866 18.0266C94.4972 18.0266 93.9102 18.0783 93.4235 18.1864V29.6756C93.693 29.7226 94.186 29.7437 94.9025 29.7437C96.5778 29.7437 97.8708 29.2197 98.7815 28.1716C99.6923 27.1235 100.152 25.596 100.152 23.5891Z" fill="white"/>
<path d="M114.699 25.9366C114.699 27.6403 114.267 29.0362 113.402 30.1313C112.495 31.257 111.294 31.8186 109.794 31.8186C108.349 31.8186 107.198 31.2805 106.339 30.1995C105.483 29.1208 105.055 27.7602 105.055 26.1199C105.055 24.4044 105.495 22.9967 106.381 21.904C107.267 20.8112 108.457 20.2637 109.957 20.2637C111.403 20.2637 112.564 20.8018 113.444 21.8805C114.279 22.9286 114.699 24.2822 114.699 25.9366ZM112.428 26.0165C112.428 24.9942 112.232 24.1177 111.841 23.3868C111.382 22.5032 110.728 22.0614 109.878 22.0614C108.999 22.0614 108.33 22.5032 107.871 23.3868C107.478 24.1177 107.284 25.0083 107.284 26.0611C107.284 27.0834 107.48 27.9599 107.871 28.6908C108.345 29.5744 109.005 30.0162 109.857 30.0162C110.693 30.0162 111.349 29.5673 111.821 28.6673C112.226 27.9223 112.428 27.0387 112.428 26.0165Z" fill="white"/>
<path d="M131.109 20.4893L128.028 31.5672H126.023L124.747 26.7567C124.423 25.5559 124.16 24.3621 123.955 23.1777H123.915C123.725 24.395 123.462 25.5864 123.124 26.7567L121.768 31.5672H119.74L116.842 20.4893H119.092L120.205 25.7556C120.475 27.0011 120.696 28.1879 120.874 29.3112H120.914C121.076 28.3853 121.346 27.2056 121.726 25.7791L123.124 20.4916H124.907L126.246 25.6663C126.57 26.9283 126.833 28.1432 127.036 29.3135H127.097C127.245 28.1738 127.468 26.9588 127.765 25.6663L128.96 20.4916H131.109V20.4893Z" fill="white"/>
<path d="M142.458 31.5674H140.269V25.2224C140.269 23.2672 139.609 22.2896 138.284 22.2896C137.635 22.2896 137.11 22.5575 136.703 23.0956C136.3 23.6338 136.095 24.2683 136.095 24.9944V31.565H133.906V23.6549C133.906 22.682 133.879 21.6269 133.827 20.4848H135.751L135.853 22.2167H135.913C136.168 21.6786 136.548 21.2344 137.048 20.8796C137.641 20.466 138.305 20.2568 139.032 20.2568C139.951 20.2568 140.716 20.5905 141.324 21.2603C142.08 22.0804 142.458 23.3048 142.458 24.931V31.5674Z" fill="white"/>
<path d="M148.495 31.5672H146.308V15.4062H148.495V31.5672Z" fill="white"/>
<path d="M161.384 25.9366C161.384 27.6403 160.951 29.0362 160.086 30.1313C159.18 31.257 157.977 31.8186 156.479 31.8186C155.031 31.8186 153.88 31.2805 153.024 30.1995C152.167 29.1208 151.739 27.7602 151.739 26.1199C151.739 24.4044 152.18 22.9967 153.066 21.904C153.951 20.8112 155.142 20.2637 156.64 20.2637C158.087 20.2637 159.247 20.8018 160.128 21.8805C160.964 22.9286 161.384 24.2822 161.384 25.9366ZM159.111 26.0165C159.111 24.9942 158.915 24.1177 158.524 23.3868C158.067 22.5032 157.411 22.0614 156.562 22.0614C155.681 22.0614 155.013 22.5032 154.555 23.3868C154.162 24.1177 153.968 25.0083 153.968 26.0611C153.968 27.0834 154.164 27.9599 154.555 28.6908C155.029 29.5744 155.689 30.0162 156.542 30.0162C157.377 30.0162 158.031 29.5673 158.503 28.6673C158.91 27.9223 159.111 27.0387 159.111 26.0165Z" fill="white"/>
<path d="M171.979 31.5672H170.013L169.85 30.2911H169.789C169.117 31.3087 168.158 31.8186 166.913 31.8186C165.983 31.8186 165.231 31.4826 164.665 30.8152C164.151 30.2089 163.895 29.4545 163.895 28.5592C163.895 27.2056 164.396 26.1739 165.405 25.4595C166.412 24.7451 167.828 24.395 169.652 24.4114V24.2046C169.652 22.7453 168.971 22.0168 167.606 22.0168C166.635 22.0168 165.779 22.2917 165.039 22.8369L164.594 21.2201C165.509 20.5833 166.639 20.2637 167.972 20.2637C170.546 20.2637 171.836 21.7912 171.836 24.8462V28.9258C171.836 30.0326 171.885 30.9139 171.979 31.5672ZM169.706 27.7602V26.0517C167.291 26.0047 166.084 26.7497 166.084 28.2842C166.084 28.8623 166.222 29.2947 166.504 29.5838C166.786 29.8728 167.145 30.0162 167.573 30.0162C168.054 30.0162 168.503 29.8446 168.912 29.5039C169.324 29.1608 169.576 28.726 169.67 28.1926C169.693 28.0727 169.706 27.927 169.706 27.7602Z" fill="white"/>
<path d="M184.418 31.5672H182.475L182.373 29.7882H182.312C181.692 31.1418 180.635 31.8186 179.149 31.8186C177.963 31.8186 176.975 31.2946 176.192 30.2465C175.408 29.1984 175.018 27.8377 175.018 26.1669C175.018 24.3738 175.442 22.9215 176.294 21.8123C177.119 20.7783 178.13 20.2613 179.333 20.2613C180.655 20.2613 181.581 20.7619 182.107 21.7653H182.149V15.4062H184.34V28.5827C184.34 29.6613 184.365 30.6554 184.418 31.5672ZM182.149 26.8954V25.0483C182.149 24.7287 182.128 24.4702 182.088 24.2728C181.965 23.6806 181.7 23.1824 181.297 22.7805C180.889 22.3787 180.399 22.1766 179.832 22.1766C179.016 22.1766 178.376 22.5408 177.907 23.2717C177.441 24.0025 177.205 24.9355 177.205 26.0752C177.205 27.1703 177.428 28.0586 177.877 28.7425C178.351 29.471 178.991 29.8352 179.791 29.8352C180.509 29.8352 181.084 29.5321 181.52 28.9234C181.942 28.3618 182.149 27.685 182.149 26.8954Z" fill="white"/>
<path d="M203.14 25.9366C203.14 27.6403 202.708 29.0362 201.843 30.1313C200.937 31.257 199.738 31.8186 198.236 31.8186C196.792 31.8186 195.641 31.2805 194.781 30.1995C193.924 29.1208 193.496 27.7602 193.496 26.1199C193.496 24.4044 193.937 22.9967 194.823 21.904C195.708 20.8112 196.899 20.2637 198.401 20.2637C199.844 20.2637 201.008 20.8018 201.885 21.8805C202.721 22.9286 203.14 24.2822 203.14 25.9366ZM200.872 26.0165C200.872 24.9942 200.676 24.1177 200.285 23.3868C199.823 22.5032 199.172 22.0614 198.319 22.0614C197.442 22.0614 196.774 22.5032 196.312 23.3868C195.919 24.1177 195.725 25.0083 195.725 26.0611C195.725 27.0834 195.921 27.9599 196.312 28.6908C196.786 29.5744 197.446 30.0162 198.298 30.0162C199.134 30.0162 199.792 29.5673 200.264 28.6673C200.667 27.9223 200.872 27.0387 200.872 26.0165Z" fill="white"/>
<path d="M214.911 31.5674H212.724V25.2224C212.724 23.2672 212.064 22.2896 210.738 22.2896C210.088 22.2896 209.564 22.5575 209.159 23.0956C208.753 23.6338 208.551 24.2683 208.551 24.9944V31.565H206.36V23.6549C206.36 22.682 206.334 21.6269 206.282 20.4848H208.204L208.306 22.2167H208.367C208.624 21.6786 209.004 21.2344 209.501 20.8796C210.097 20.466 210.759 20.2568 211.488 20.2568C212.405 20.2568 213.169 20.5905 213.777 21.2603C214.535 22.0804 214.911 23.3048 214.911 24.931V31.5674Z" fill="white"/>
<path d="M229.644 22.3341H227.234V27.7156C227.234 29.0833 227.662 29.7672 228.51 29.7672C228.903 29.7672 229.228 29.7296 229.485 29.652L229.542 31.5203C229.109 31.7036 228.541 31.7952 227.841 31.7952C226.977 31.7952 226.304 31.4991 225.817 30.9069C225.329 30.3147 225.086 29.3183 225.086 27.9201V22.3341H223.647V20.4894H225.086V18.459L227.231 17.7305V20.487H229.642V22.3341H229.644Z" fill="white"/>
<path d="M241.234 31.5672H239.042V25.2692C239.042 23.2835 238.382 22.2894 237.06 22.2894C236.045 22.2894 235.351 22.8652 234.971 24.0167C234.906 24.2587 234.869 24.5548 234.869 24.9026V31.5649H232.682V15.4062H234.869V22.0826H234.91C235.6 20.8677 236.588 20.2613 237.868 20.2613C238.775 20.2613 239.525 20.595 240.12 21.2648C240.862 22.099 241.234 23.3398 241.234 24.9802V31.5672Z" fill="white"/>
<path d="M253.188 25.5038C253.188 25.9456 253.159 26.3169 253.107 26.6201H246.541C246.571 27.7152 246.884 28.5494 247.492 29.1275C248.047 29.6445 248.764 29.903 249.641 29.903C250.613 29.903 251.498 29.7291 252.296 29.379L252.639 31.0898C251.705 31.5457 250.606 31.7736 249.334 31.7736C247.809 31.7736 246.608 31.2684 245.739 30.2579C244.866 29.2474 244.434 27.8914 244.434 26.19C244.434 24.5192 244.837 23.128 245.649 22.0188C246.497 20.8344 247.644 20.2422 249.092 20.2422C250.508 20.2422 251.584 20.8344 252.311 22.0188C252.898 22.9588 253.188 24.122 253.188 25.5038ZM251.099 24.867C251.116 24.1361 250.972 23.5063 250.675 22.9752C250.295 22.2914 249.716 21.9483 248.933 21.9483C248.219 21.9483 247.636 22.282 247.191 22.9517C246.827 23.4852 246.612 24.122 246.541 24.867H251.099Z" fill="white"/>
<path d="M112.059 74.0345H107.315L104.716 64.8484H95.6837L93.2084 74.0345H88.5898L97.5386 42.7607H103.066L112.059 74.0345ZM103.933 60.9944L101.583 52.8281C101.334 51.9939 100.868 50.0293 100.181 46.9367H100.098C99.8239 48.2668 99.3831 50.2314 98.7773 52.8281L96.4691 60.9944H103.933Z" fill="white"/>
<path d="M135.072 62.4824C135.072 66.3176 134.151 69.3491 132.308 71.5746C130.658 73.5556 128.609 74.545 126.163 74.545C123.523 74.545 121.626 73.4781 120.471 71.3443H120.387V83.2235H115.934V58.9081C115.934 56.497 115.877 54.0224 115.769 51.4844H119.685L119.934 55.0588H120.017C121.503 52.3657 123.756 51.0215 126.781 51.0215C129.146 51.0215 131.12 52.0719 132.699 54.1752C134.282 56.2808 135.072 59.0491 135.072 62.4824ZM130.535 62.6657C130.535 60.4708 130.096 58.6613 129.215 57.2372C128.252 55.752 126.959 55.0094 125.338 55.0094C124.239 55.0094 123.241 55.423 122.349 56.2385C121.455 57.061 120.87 58.1349 120.596 59.465C120.458 60.0854 120.389 60.593 120.389 60.9925V64.7525C120.389 66.3928 120.836 67.777 121.73 68.9073C122.624 70.0377 123.786 70.6017 125.215 70.6017C126.892 70.6017 128.197 69.8732 129.131 68.4209C130.067 66.9662 130.535 65.0486 130.535 62.6657Z" fill="white"/>
<path d="M158.127 62.4824C158.127 66.3176 157.206 69.3491 155.361 71.5746C153.713 73.5556 151.664 74.545 149.218 74.545C146.578 74.545 144.681 73.4781 143.528 71.3443H143.444V83.2235H138.991V58.9081C138.991 56.497 138.934 54.0224 138.826 51.4844H142.742L142.991 55.0588H143.074C144.558 52.3657 146.812 51.0215 149.838 51.0215C152.201 51.0215 154.175 52.0719 155.758 54.1752C157.335 56.2808 158.127 59.0491 158.127 62.4824ZM153.59 62.6657C153.59 60.4708 153.149 58.6613 152.268 57.2372C151.305 55.752 150.016 55.0094 148.393 55.0094C147.292 55.0094 146.296 55.423 145.402 56.2385C144.507 57.061 143.925 58.1349 143.651 59.465C143.515 60.0854 143.444 60.593 143.444 60.9925V64.7525C143.444 66.3928 143.891 67.777 144.781 68.9073C145.675 70.0353 146.837 70.6017 148.27 70.6017C149.947 70.6017 151.252 69.8732 152.186 68.4209C153.122 66.9662 153.59 65.0486 153.59 62.6657Z" fill="white"/>
<path d="M183.904 65.2646C183.904 67.9248 183.083 70.0891 181.435 71.76C179.623 73.5859 177.102 74.4977 173.862 74.4977C170.871 74.4977 168.473 73.8491 166.658 72.5496L167.69 68.3736C169.645 69.7037 171.79 70.3711 174.128 70.3711C175.805 70.3711 177.111 69.9434 178.048 69.0927C178.982 68.242 179.448 67.0999 179.448 65.6758C179.448 64.4068 179.064 63.3376 178.293 62.4704C177.526 61.6033 176.246 60.7972 174.458 60.0523C169.591 58.0101 167.159 55.0186 167.159 51.0847C167.159 48.5138 168.011 46.4058 169.718 44.7655C171.418 43.1229 173.687 42.3027 176.524 42.3027C179.053 42.3027 181.155 42.7986 182.832 43.7879L181.719 47.8722C180.152 46.9134 178.381 46.434 176.398 46.434C174.832 46.434 173.607 46.8688 172.73 47.7336C171.989 48.5067 171.617 49.4491 171.617 50.5653C171.617 51.8014 172.041 52.8237 172.893 53.6274C173.635 54.37 174.982 55.1737 176.937 56.0408C179.329 57.1242 181.086 58.3908 182.216 59.8431C183.342 61.2907 183.904 63.1026 183.904 65.2646Z" fill="white"/>
<path d="M198.628 55.2441H193.719V66.1927C193.719 68.9775 194.584 70.3687 196.318 70.3687C197.114 70.3687 197.774 70.2911 198.296 70.136L198.419 73.9407C197.542 74.3096 196.387 74.4953 194.956 74.4953C193.197 74.4953 191.823 73.8913 190.831 72.6858C189.842 71.4779 189.345 69.4522 189.345 66.6063V55.2394H186.421V51.4794H189.345V47.3504L193.719 45.8652V51.4794H198.628V55.2441Z" fill="white"/>
<path d="M220.777 62.5737C220.777 66.0399 219.896 68.8858 218.137 71.1112C216.292 73.4025 213.844 74.5446 210.792 74.5446C207.851 74.5446 205.509 73.4471 203.763 71.2522C202.017 69.0573 201.144 66.2867 201.144 62.9473C201.144 59.4529 202.042 56.5906 203.844 54.3651C205.643 52.1373 208.07 51.0234 211.122 51.0234C214.063 51.0234 216.43 52.1209 218.216 54.3181C219.925 56.4496 220.777 59.2014 220.777 62.5737ZM216.156 62.7358C216.156 60.6561 215.762 58.8724 214.962 57.3849C214.028 55.5848 212.693 54.6871 210.963 54.6871C209.173 54.6871 207.813 55.5871 206.88 57.3849C206.08 58.8748 205.685 60.6866 205.685 62.8298C205.685 64.9096 206.08 66.6932 206.88 68.1784C207.843 69.9785 209.188 70.8762 210.924 70.8762C212.624 70.8762 213.959 69.9597 214.922 68.1314C215.743 66.6157 216.156 64.8132 216.156 62.7358Z" fill="white"/>
<path d="M235.253 55.8907C234.812 55.799 234.342 55.752 233.849 55.752C232.282 55.752 231.071 56.4171 230.218 57.7495C229.477 58.9245 229.105 60.4097 229.105 62.2028V74.035H224.654L224.695 58.5861C224.695 55.987 224.639 53.6206 224.528 51.4868H228.407L228.57 55.8014H228.694C229.164 54.3185 229.905 53.1247 230.92 52.2294C231.913 51.4233 232.984 51.0215 234.139 51.0215C234.551 51.0215 234.923 51.0544 235.253 51.1131V55.8907Z" fill="white"/>
<path d="M255.17 61.6922C255.17 62.5899 255.118 63.3466 255.008 63.9646H241.647C241.699 66.1924 242.345 67.8962 243.586 69.0712C244.711 70.1216 246.167 70.648 247.955 70.648C249.934 70.648 251.738 70.2932 253.362 69.5811L254.059 73.0591C252.162 73.9897 249.923 74.4527 247.339 74.4527C244.231 74.4527 241.791 73.4234 240.016 71.3671C238.244 69.3109 237.356 66.5496 237.356 63.0857C237.356 59.6853 238.182 56.8535 239.834 54.5952C241.563 52.1841 243.901 50.9785 246.842 50.9785C249.731 50.9785 251.918 52.1841 253.403 54.5952C254.579 56.5104 255.17 58.8792 255.17 61.6922ZM250.924 60.3926C250.953 58.9074 250.663 57.6243 250.059 56.541C249.288 55.1474 248.104 54.4518 246.51 54.4518C245.054 54.4518 243.87 55.131 242.965 56.494C242.224 57.5773 241.783 58.8769 241.647 60.3903H250.924V60.3926Z" fill="white"/>
</svg>
