<svg width="40" height="46" viewBox="0 0 40 46" fill="none" xmlns="http://www.w3.org/2000/svg">
<path opacity="0.4" d="M35 14.1046V32.8546C35 38.4796 32.5 42.2296 26.6667 42.2296H13.3333C7.5 42.2296 5 38.4796 5 32.8546V14.1046C5 8.47961 7.5 4.72961 13.3333 4.72961H26.6667C32.5 4.72961 35 8.47961 35 14.1046Z" fill="#292D32"/>
<path d="M25.8327 4.72961V19.4671C25.8327 20.2921 24.966 20.7046 24.4326 20.1609L20.5661 16.1484C20.2494 15.8109 19.7493 15.8109 19.4326 16.1484L15.5661 20.1609C15.0327 20.7234 14.166 20.2921 14.166 19.4671V4.72961H25.8327Z" fill="#292D32"/>
<path d="M29.1654 28.6359H22.082C21.3987 28.6359 20.832 27.9984 20.832 27.2296C20.832 26.4609 21.3987 25.8234 22.082 25.8234H29.1654C29.8487 25.8234 30.4154 26.4609 30.4154 27.2296C30.4154 27.9984 29.8487 28.6359 29.1654 28.6359Z" fill="#292D32"/>
<path d="M29.1667 36.1359H15C14.3167 36.1359 13.75 35.4984 13.75 34.7296C13.75 33.9609 14.3167 33.3234 15 33.3234H29.1667C29.85 33.3234 30.4167 33.9609 30.4167 34.7296C30.4167 35.4984 29.85 36.1359 29.1667 36.1359Z" fill="#292D32"/>
</svg>
