<svg width="251" height="73" viewBox="0 0 251 73" fill="none" xmlns="http://www.w3.org/2000/svg">
<rect width="251" height="73" rx="36.5" fill="#03EED8"/>
<path d="M87.1701 46L82.4492 29.2727H85.7081L88.7219 41.565H88.8771L92.0952 29.2727H95.06L98.2862 41.5732H98.4332L101.447 29.2727H104.706L99.9851 46H96.9957L93.647 34.2631H93.5163L90.1594 46H87.1701ZM108.086 46.2532C107.291 46.2532 106.575 46.1116 105.938 45.8285C105.307 45.5399 104.806 45.1152 104.435 44.5543C104.07 43.9935 103.888 43.302 103.888 42.4798C103.888 41.7719 104.019 41.1866 104.28 40.7237C104.541 40.2609 104.898 39.8906 105.35 39.6129C105.802 39.3352 106.311 39.1256 106.877 38.984C107.449 38.837 108.04 38.7308 108.65 38.6655C109.385 38.5893 109.981 38.5212 110.438 38.4613C110.896 38.396 111.228 38.2979 111.435 38.1673C111.647 38.0311 111.753 37.8215 111.753 37.5384V37.4893C111.753 36.8741 111.571 36.3976 111.206 36.06C110.841 35.7224 110.316 35.5536 109.63 35.5536C108.906 35.5536 108.331 35.7115 107.907 36.0273C107.487 36.3432 107.204 36.7161 107.057 37.1463L104.296 36.7543C104.514 35.992 104.874 35.3549 105.375 34.843C105.876 34.3258 106.488 33.9392 107.212 33.6832C107.936 33.4219 108.737 33.2912 109.614 33.2912C110.218 33.2912 110.82 33.362 111.419 33.5036C112.018 33.6451 112.565 33.8793 113.06 34.206C113.556 34.5272 113.953 34.9656 114.253 35.521C114.558 36.0763 114.71 36.7706 114.71 37.6037V46H111.868V44.2766H111.77C111.59 44.6251 111.337 44.9518 111.01 45.2567C110.689 45.5562 110.283 45.7985 109.793 45.9837C109.309 46.1634 108.74 46.2532 108.086 46.2532ZM108.854 44.0806C109.447 44.0806 109.962 43.9635 110.398 43.7294C110.833 43.4898 111.168 43.174 111.402 42.782C111.642 42.3899 111.762 41.9625 111.762 41.4996V40.0213C111.669 40.0975 111.511 40.1683 111.288 40.2337C111.07 40.299 110.825 40.3562 110.553 40.4052C110.281 40.4542 110.011 40.4978 109.744 40.5359C109.477 40.574 109.246 40.6067 109.05 40.6339C108.609 40.6938 108.214 40.7918 107.866 40.9279C107.517 41.064 107.242 41.2546 107.041 41.4996C106.839 41.7392 106.739 42.0496 106.739 42.4308C106.739 42.9753 106.937 43.3864 107.335 43.6641C107.732 43.9418 108.239 44.0806 108.854 44.0806ZM123.028 33.4545V35.7415H115.816V33.4545H123.028ZM117.596 30.4489H120.553V42.2266C120.553 42.6241 120.613 42.929 120.733 43.1413C120.858 43.3482 121.021 43.4898 121.223 43.5661C121.424 43.6423 121.647 43.6804 121.892 43.6804C122.078 43.6804 122.246 43.6668 122.399 43.6396C122.557 43.6123 122.677 43.5878 122.758 43.5661L123.256 45.8775C123.099 45.9319 122.873 45.9918 122.579 46.0572C122.29 46.1225 121.936 46.1606 121.517 46.1715C120.776 46.1933 120.109 46.0817 119.516 45.8366C118.922 45.5862 118.451 45.1996 118.103 44.6768C117.76 44.1541 117.591 43.5007 117.596 42.7166V30.4489ZM129.918 46.245C128.666 46.245 127.59 45.9701 126.692 45.4201C125.799 44.8701 125.11 44.1106 124.625 43.1413C124.146 42.1667 123.907 41.045 123.907 39.7763C123.907 38.5021 124.152 37.3777 124.642 36.4031C125.132 35.4229 125.823 34.6606 126.716 34.1161C127.615 33.5662 128.677 33.2912 129.902 33.2912C130.92 33.2912 131.821 33.479 132.605 33.8548C133.395 34.225 134.024 34.7505 134.492 35.4311C134.96 36.1063 135.227 36.8958 135.292 37.7997H132.466C132.352 37.1953 132.08 36.6916 131.65 36.2887C131.225 35.8803 130.656 35.6761 129.943 35.6761C129.338 35.6761 128.807 35.8395 128.35 36.1662C127.892 36.4875 127.536 36.9503 127.28 37.5547C127.029 38.1591 126.904 38.8833 126.904 39.7273C126.904 40.5821 127.029 41.3172 127.28 41.9325C127.53 42.5424 127.882 43.0134 128.333 43.3455C128.791 43.6722 129.327 43.8356 129.943 43.8356C130.378 43.8356 130.767 43.7539 131.11 43.5906C131.459 43.4218 131.75 43.1795 131.984 42.8636C132.219 42.5478 132.379 42.1639 132.466 41.712H135.292C135.222 42.5996 134.96 43.3864 134.508 44.0724C134.056 44.7531 133.441 45.2867 132.662 45.6733C131.884 46.0545 130.969 46.245 129.918 46.245ZM139.757 38.6491V46H136.8V29.2727H139.691V35.5863H139.838C140.132 34.8784 140.587 34.3203 141.202 33.9119C141.823 33.4981 142.613 33.2912 143.571 33.2912C144.442 33.2912 145.202 33.4736 145.85 33.8384C146.498 34.2032 146.999 34.7369 147.353 35.4393C147.712 36.1417 147.892 36.9993 147.892 38.0121V46H144.935V38.4695C144.935 37.6255 144.717 36.9693 144.282 36.5011C143.851 36.0273 143.247 35.7905 142.468 35.7905C141.946 35.7905 141.477 35.9048 141.064 36.1335C140.655 36.3568 140.334 36.6808 140.1 37.1055C139.871 37.5302 139.757 38.0447 139.757 38.6491ZM157.139 29.2727L161.493 42.4389H161.664L166.009 29.2727H169.342L163.445 46H159.704L153.815 29.2727H157.139ZM170.494 46V33.4545H173.451V46H170.494ZM171.981 31.674C171.512 31.674 171.11 31.5188 170.772 31.2085C170.434 30.8926 170.266 30.5142 170.266 30.0732C170.266 29.6267 170.434 29.2482 170.772 28.9379C171.11 28.622 171.512 28.4641 171.981 28.4641C172.454 28.4641 172.857 28.622 173.19 28.9379C173.527 29.2482 173.696 29.6267 173.696 30.0732C173.696 30.5142 173.527 30.8926 173.19 31.2085C172.857 31.5188 172.454 31.674 171.981 31.674ZM180.227 46.2205C179.241 46.2205 178.359 45.9673 177.581 45.4609C176.802 44.9545 176.187 44.2195 175.735 43.2557C175.283 42.2919 175.057 41.1212 175.057 39.7436C175.057 38.3497 175.285 37.1735 175.743 36.2152C176.206 35.2514 176.829 34.5245 177.613 34.0344C178.397 33.5389 179.271 33.2912 180.235 33.2912C180.97 33.2912 181.574 33.4164 182.048 33.6669C182.522 33.9119 182.898 34.2087 183.175 34.5572C183.453 34.9002 183.668 35.2242 183.821 35.5291H183.943V29.2727H186.908V46H184V44.0234H183.821C183.668 44.3284 183.448 44.6523 183.159 44.9954C182.87 45.333 182.489 45.6216 182.016 45.8612C181.542 46.1007 180.946 46.2205 180.227 46.2205ZM181.052 43.7947C181.678 43.7947 182.212 43.6259 182.653 43.2884C183.094 42.9453 183.429 42.4689 183.657 41.859C183.886 41.2492 184 40.5386 184 39.7273C184 38.916 183.886 38.2108 183.657 37.6119C183.434 37.0129 183.102 36.5473 182.661 36.2152C182.225 35.883 181.689 35.717 181.052 35.717C180.393 35.717 179.843 35.8885 179.402 36.2315C178.961 36.5746 178.629 37.0483 178.405 37.6527C178.182 38.2571 178.071 38.9486 178.071 39.7273C178.071 40.5114 178.182 41.2111 178.405 41.8263C178.634 42.4362 178.969 42.9181 179.41 43.272C179.857 43.6205 180.404 43.7947 181.052 43.7947ZM194.693 46.245C193.435 46.245 192.348 45.9837 191.434 45.4609C190.524 44.9328 189.825 44.1868 189.335 43.223C188.845 42.2538 188.6 41.113 188.6 39.8008C188.6 38.5103 188.845 37.3777 189.335 36.4031C189.83 35.4229 190.522 34.6606 191.409 34.1161C192.297 33.5662 193.339 33.2912 194.537 33.2912C195.311 33.2912 196.04 33.4164 196.726 33.6669C197.418 33.9119 198.028 34.2931 198.556 34.8104C199.089 35.3277 199.509 35.9865 199.814 36.7869C200.119 37.5819 200.271 38.5294 200.271 39.6293V40.5359H189.988V38.543H197.437C197.431 37.9767 197.309 37.473 197.069 37.032C196.83 36.5855 196.495 36.2343 196.065 35.9783C195.64 35.7224 195.145 35.5945 194.578 35.5945C193.974 35.5945 193.443 35.7415 192.986 36.0355C192.528 36.3241 192.171 36.7053 191.916 37.179C191.665 37.6473 191.537 38.1618 191.532 38.7227V40.4624C191.532 41.192 191.665 41.8182 191.932 42.3409C192.199 42.8582 192.572 43.2557 193.051 43.5334C193.53 43.8056 194.091 43.9418 194.733 43.9418C195.164 43.9418 195.553 43.8819 195.901 43.7621C196.25 43.6368 196.552 43.4544 196.808 43.2148C197.064 42.9753 197.257 42.6785 197.388 42.3246L200.149 42.6349C199.974 43.3646 199.642 44.0017 199.152 44.5462C198.667 45.0852 198.047 45.5045 197.29 45.804C196.533 46.098 195.667 46.245 194.693 46.245ZM207.325 46.245C206.1 46.245 205.038 45.9755 204.139 45.4364C203.241 44.8974 202.544 44.1432 202.048 43.174C201.558 42.2048 201.313 41.0722 201.313 39.7763C201.313 38.4804 201.558 37.3451 202.048 36.3704C202.544 35.3957 203.241 34.6388 204.139 34.0998C205.038 33.5607 206.1 33.2912 207.325 33.2912C208.55 33.2912 209.612 33.5607 210.51 34.0998C211.408 34.6388 212.103 35.3957 212.593 36.3704C213.088 37.3451 213.336 38.4804 213.336 39.7763C213.336 41.0722 213.088 42.2048 212.593 43.174C212.103 44.1432 211.408 44.8974 210.51 45.4364C209.612 45.9755 208.55 46.245 207.325 46.245ZM207.341 43.8764C208.005 43.8764 208.561 43.694 209.007 43.3292C209.454 42.9589 209.786 42.4634 210.004 41.8427C210.227 41.2219 210.339 40.5304 210.339 39.7681C210.339 39.0004 210.227 38.3061 210.004 37.6854C209.786 37.0592 209.454 36.561 209.007 36.1907C208.561 35.8204 208.005 35.6353 207.341 35.6353C206.66 35.6353 206.094 35.8204 205.642 36.1907C205.196 36.561 204.861 37.0592 204.638 37.6854C204.42 38.3061 204.311 39.0004 204.311 39.7681C204.311 40.5304 204.42 41.2219 204.638 41.8427C204.861 42.4634 205.196 42.9589 205.642 43.3292C206.094 43.694 206.66 43.8764 207.341 43.8764Z" fill="#292D32"/>
<path opacity="0.4" d="M50.4412 56.0833C61.2568 56.0833 70.0246 47.3155 70.0246 36.5C70.0246 25.6844 61.2568 16.9166 50.4412 16.9166C39.6257 16.9166 30.8579 25.6844 30.8579 36.5C30.8579 47.3155 39.6257 56.0833 50.4412 56.0833Z" fill="#292D32"/>
<path d="M56.3163 33.0338L50.6372 29.7634C49.2272 28.9409 47.5234 28.9409 46.1134 29.7634C44.7034 30.5859 43.8613 32.035 43.8613 33.68V40.2404C43.8613 41.8659 44.7034 43.3346 46.1134 44.1571C46.8184 44.5684 47.6017 44.7642 48.3655 44.7642C49.1488 44.7642 49.9126 44.5684 50.6176 44.1571L56.2967 40.8867C57.7067 40.0642 58.5488 38.615 58.5488 36.97C58.588 35.325 57.7459 33.8563 56.3163 33.0338Z" fill="#292D32"/>
</svg>
