<svg width="62" height="61" viewBox="0 0 62 61" fill="none" xmlns="http://www.w3.org/2000/svg">
<rect width="62" height="61" rx="30.5" fill="#2F2F2F"/>
<path d="M30.4994 44.3987C29.0915 44.3987 27.6965 43.9853 26.5986 43.1716L21.0444 39.0253C19.5719 37.9274 18.4224 35.6283 18.4224 33.807V24.197C18.4224 22.2078 19.8819 20.0895 21.7549 19.392L28.2003 16.9766C29.479 16.4987 31.494 16.4987 32.7728 16.9766L39.2182 19.392C41.0911 20.0895 42.5507 22.2078 42.5507 24.197V33.7941C42.5507 35.6283 41.4011 37.9145 39.9286 39.0124L34.3744 43.1587C33.3024 43.9853 31.9074 44.3987 30.4994 44.3987ZM28.8849 18.7979L22.4394 21.2133C21.3415 21.6266 20.3728 23.0216 20.3728 24.2099V33.807C20.3728 35.0341 21.2382 36.752 22.2069 37.4753L27.7611 41.6216C29.2465 42.7324 31.7524 42.7324 33.2507 41.6216L38.8049 37.4753C39.7865 36.7391 40.639 35.0341 40.639 33.807V24.197C40.639 23.0216 39.6703 21.6266 38.5724 21.2004L32.1269 18.7849C31.2486 18.4749 29.7503 18.4749 28.8849 18.7979Z" fill="#5D00F4"/>
<path d="M28.7678 33.3822C28.5223 33.3822 28.2769 33.2918 28.0832 33.0981L26.0036 31.0185C25.629 30.6439 25.629 30.0239 26.0036 29.6493C26.3782 29.2747 26.9982 29.2747 27.3728 29.6493L28.7678 31.0443L33.6373 26.1747C34.0119 25.8002 34.6319 25.8002 35.0065 26.1747C35.3811 26.5493 35.3811 27.1693 35.0065 27.5439L29.4523 33.0981C29.2586 33.2918 29.0132 33.3822 28.7678 33.3822Z" fill="#5D00F4"/>
</svg>
