<svg width="62" height="61" viewBox="0 0 62 61" fill="none" xmlns="http://www.w3.org/2000/svg">
<rect width="62" height="61" rx="30.5" fill="#2F2F2F"/>
<path d="M29.0797 44.3337C27.6397 44.3337 26.1864 43.9333 25.0664 43.1195L19.3597 38.9862C17.853 37.9012 16.6797 35.6149 16.6797 33.7808V24.2095C16.6797 22.2333 18.173 20.1278 20.093 19.4303L26.733 17.0149C28.053 16.537 30.1197 16.537 31.4397 17.0149L38.0664 19.4303C39.6264 19.9987 40.9464 21.5099 41.373 23.1891C41.4397 23.4733 41.373 23.7833 41.1864 24.0158C40.9997 24.2483 40.7064 24.3903 40.3997 24.3903L29.853 24.4033C28.1597 24.5066 27.7464 24.7779 27.7464 27.1675V34.1812C27.7464 36.6483 28.0797 36.9583 30.6664 36.9583H38.5597C38.973 36.9583 39.3464 37.2037 39.493 37.5783C39.6397 37.9529 39.533 38.3791 39.2264 38.6503C39.0797 38.7666 38.9597 38.8829 38.813 38.9862L33.1064 43.1324C31.9597 43.9333 30.5197 44.3337 29.0797 44.3337ZM29.0797 18.6037C28.4797 18.6037 27.8664 18.6812 27.4264 18.8491L20.7864 21.2645C19.6664 21.6779 18.6664 23.0599 18.6664 24.2353V33.8066C18.6664 35.0208 19.5464 36.7258 20.5464 37.4491L26.253 41.5824C27.7864 42.6803 30.3597 42.6803 31.893 41.5824L35.5864 38.9087H30.653C26.973 38.9087 25.733 37.7203 25.733 34.1941V27.1803C25.733 24.4291 26.413 22.6854 29.7864 22.4787L30.653 22.4658H38.853C38.453 21.9103 37.9197 21.4712 37.3597 21.2645L30.733 18.8491C30.2797 18.6812 29.6797 18.6037 29.0797 18.6037Z" fill="#5D00F4"/>
<path d="M44.3329 30.4612H26.7329C26.1862 30.4612 25.7329 30.022 25.7329 29.4924C25.7329 28.9628 26.1862 28.5237 26.7329 28.5237H44.3329C44.8796 28.5237 45.3329 28.9628 45.3329 29.4924C45.3329 30.022 44.8796 30.4612 44.3329 30.4612Z" fill="#5D00F4"/>
<path d="M40.4129 38.8958H30.6529C26.9729 38.8958 25.7329 37.7075 25.7329 34.1812V27.1675C25.7329 24.4162 26.4129 22.6725 29.7862 22.4658L30.6529 22.4529H40.4129C44.0929 22.4529 45.3329 23.6412 45.3329 27.1675V34.3362C45.3062 37.7462 44.0662 38.8958 40.4129 38.8958ZM30.6529 24.3904L29.8396 24.4033C28.1462 24.5066 27.7329 24.7779 27.7329 27.1675V34.1812C27.7329 36.6483 28.0662 36.9583 30.6529 36.9583H40.4129C42.9596 36.9583 43.3062 36.6354 43.3329 34.3362V27.1804C43.3329 24.7133 42.9996 24.4033 40.4129 24.4033H30.6529V24.3904Z" fill="#5D00F4"/>
<path d="M31.8667 35.6797H30.0801C29.5334 35.6797 29.0801 35.2405 29.0801 34.7109C29.0801 34.1814 29.5334 33.7422 30.0801 33.7422H31.8667C32.4134 33.7422 32.8667 34.1814 32.8667 34.7109C32.8667 35.2405 32.4267 35.6797 31.8667 35.6797Z" fill="#5D00F4"/>
<path d="M39.0265 35.6797H34.6665C34.1198 35.6797 33.6665 35.2405 33.6665 34.7109C33.6665 34.1814 34.1198 33.7422 34.6665 33.7422H39.0265C39.5732 33.7422 40.0265 34.1814 40.0265 34.7109C40.0265 35.2405 39.5865 35.6797 39.0265 35.6797Z" fill="#5D00F4"/>
</svg>
