<svg width="62" height="61" viewBox="0 0 62 61" fill="none" xmlns="http://www.w3.org/2000/svg">
<rect width="62" height="61" rx="30.5" fill="#2F2F2F"/>
<path d="M35.0003 44.3853H27.0003C19.7603 44.3853 16.667 41.3887 16.667 34.3749V26.6249C16.667 19.6112 19.7603 16.6145 27.0003 16.6145H35.0003C42.2403 16.6145 45.3337 19.6112 45.3337 26.6249V34.3749C45.3337 41.3887 42.2403 44.3853 35.0003 44.3853ZM27.0003 18.552C20.8537 18.552 18.667 20.6703 18.667 26.6249V34.3749C18.667 40.3295 20.8537 42.4478 27.0003 42.4478H35.0003C41.147 42.4478 43.3337 40.3295 43.3337 34.3749V26.6249C43.3337 20.6703 41.147 18.552 35.0003 18.552H27.0003Z" fill="#5D00F4"/>
<path d="M30.9998 31.8948C30.8265 31.8948 30.6532 31.8561 30.4932 31.7657L23.4265 27.8132C22.9465 27.5419 22.7865 26.9477 23.0665 26.4957C23.3465 26.0307 23.9598 25.8756 24.4265 26.1469L30.9865 29.8282L37.5065 26.1727C37.9865 25.9015 38.5998 26.0694 38.8665 26.5215C39.1332 26.9736 38.9732 27.5807 38.5065 27.839L31.4932 31.7657C31.3465 31.8432 31.1732 31.8948 30.9998 31.8948Z" fill="#5D00F4"/>
<path d="M31 38.9217C30.4533 38.9217 30 38.4825 30 37.9529V30.9263C30 30.3967 30.4533 29.9575 31 29.9575C31.5467 29.9575 32 30.3967 32 30.9263V37.9529C32 38.4825 31.5467 38.9217 31 38.9217Z" fill="#5D00F4"/>
<path d="M31.0003 39.2188C30.227 39.2188 29.467 39.0509 28.8537 38.7279L24.587 36.4288C23.307 35.7442 22.3203 34.1038 22.3203 32.6829V28.3042C22.3203 26.8963 23.3203 25.2559 24.587 24.5584L28.8537 22.2592C30.0803 21.6004 31.9203 21.6004 33.147 22.2592L37.4137 24.5584C38.6937 25.2429 39.6803 26.8834 39.6803 28.3042V32.6829C39.6803 34.0909 38.6803 35.7313 37.4137 36.4288L33.147 38.7279C32.5336 39.0638 31.7737 39.2188 31.0003 39.2188ZM31.0003 23.7188C30.5603 23.7188 30.1337 23.7963 29.827 23.9642L25.5603 26.2634C24.907 26.6121 24.3203 27.5938 24.3203 28.3042V32.6829C24.3203 33.4063 24.907 34.375 25.5603 34.7238L29.827 37.0229C30.4403 37.3588 31.5603 37.3588 32.1737 37.0229L36.4403 34.7238C37.0936 34.375 37.6803 33.3934 37.6803 32.6829V28.3042C37.6803 27.5809 37.0936 26.6121 36.4403 26.2634L32.1737 23.9642C31.867 23.7963 31.4403 23.7188 31.0003 23.7188Z" fill="#5D00F4"/>
</svg>
