<svg width="62" height="61" viewBox="0 0 62 61" fill="none" xmlns="http://www.w3.org/2000/svg">
<rect x="0.5" width="61" height="61" rx="30.5" fill="#2F2F2F"/>
<path d="M29.4371 34.5947C29.1787 34.5947 28.9333 34.4913 28.7525 34.3105L25.6266 31.1847C25.2521 30.8101 25.2521 30.1901 25.6266 29.8155C26.0012 29.4409 26.6212 29.4409 26.9958 29.8155L29.4371 32.2567L34.9912 26.7026C35.3658 26.328 35.9858 26.328 36.3604 26.7026C36.735 27.0772 36.735 27.6972 36.3604 28.0717L30.1216 34.3105C29.9408 34.4913 29.6954 34.5947 29.4371 34.5947Z" fill="#5D00F4"/>
<path d="M31.0001 44.3853C30.1863 44.3853 29.3726 44.1141 28.7396 43.5716L26.6988 41.8149C26.4921 41.6341 25.9755 41.4533 25.7042 41.4533H23.4826C21.5709 41.4533 20.0209 39.9032 20.0209 37.9916V35.7828C20.0209 35.5116 19.8401 35.0078 19.6592 34.8012L17.9155 32.7474C16.8563 31.4945 16.8563 29.5183 17.9155 28.2653L19.6592 26.2116C19.8401 26.0049 20.0209 25.5012 20.0209 25.2299V23.0083C20.0209 21.0966 21.5709 19.5466 23.4826 19.5466H25.7171C25.9884 19.5466 26.5051 19.3528 26.7117 19.1849L28.7526 17.4283C30.0184 16.3433 31.9946 16.3433 33.2605 17.4283L35.3013 19.1849C35.508 19.3658 36.0246 19.5466 36.2959 19.5466H38.4917C40.4034 19.5466 41.9534 21.0966 41.9534 23.0083V25.2041C41.9534 25.4753 42.1471 25.992 42.328 26.1987L44.0846 28.2395C45.1696 29.5053 45.1696 31.4816 44.0846 32.7474L42.328 34.7883C42.1471 34.9949 41.9534 35.5116 41.9534 35.7828V37.9787C41.9534 39.8903 40.4034 41.4403 38.4917 41.4403H36.2959C36.0246 41.4403 35.508 41.6341 35.3013 41.802L33.2605 43.5587C32.6276 44.1141 31.8138 44.3853 31.0001 44.3853ZM23.4826 21.4841C22.643 21.4841 21.9584 22.1687 21.9584 23.0083V25.217C21.9584 25.9533 21.6096 26.8962 21.1317 27.4516L19.388 29.5053C18.9359 30.0349 18.9359 30.952 19.388 31.4816L21.1317 33.5353C21.6096 34.1037 21.9584 35.0337 21.9584 35.7699V37.9787C21.9584 38.8183 22.643 39.5028 23.4826 39.5028H25.7171C26.4663 39.5028 27.4092 39.8516 27.9776 40.3424L30.0184 42.0991C30.548 42.5512 31.478 42.5512 32.0076 42.0991L34.0484 40.3424C34.6167 39.8645 35.5596 39.5028 36.3088 39.5028H38.5046C39.3442 39.5028 40.0288 38.8183 40.0288 37.9787V35.7828C40.0288 35.0337 40.3776 34.0908 40.8684 33.5224L42.6251 31.4816C43.0771 30.952 43.0771 30.022 42.6251 29.4924L40.8684 27.4516C40.3776 26.8833 40.0288 25.9403 40.0288 25.1912V23.0083C40.0288 22.1687 39.3442 21.4841 38.5046 21.4841H36.3088C35.5596 21.4841 34.6167 21.1353 34.0484 20.6445L32.0076 18.8878C31.478 18.4358 30.548 18.4358 30.0184 18.8878L27.9776 20.6574C27.4092 21.1353 26.4534 21.4841 25.7171 21.4841H23.4826Z" fill="#5D00F4"/>
</svg>
