<svg width="62" height="61" viewBox="0 0 62 61" fill="none" xmlns="http://www.w3.org/2000/svg">
<rect width="62" height="61" rx="30.5" fill="#2F2F2F"/>
<path d="M32.4003 35.9896H29.8937C28.1203 35.9896 26.667 34.543 26.667 32.7605C26.667 32.2309 27.1203 31.7917 27.667 31.7917C28.2137 31.7917 28.667 32.2309 28.667 32.7605C28.667 33.4709 29.2137 34.0521 29.8937 34.0521H32.4003C32.9203 34.0521 33.3337 33.6001 33.3337 33.0446C33.3337 32.3471 33.1337 32.2438 32.6803 32.0888L28.667 30.7325C27.8137 30.4355 26.667 29.8413 26.667 27.9426C26.667 26.328 27.987 24.9976 29.6003 24.9976H32.107C33.8803 24.9976 35.3337 26.4442 35.3337 28.2267C35.3337 28.7563 34.8803 29.1955 34.3337 29.1955C33.787 29.1955 33.3337 28.7563 33.3337 28.2267C33.3337 27.5163 32.787 26.9351 32.107 26.9351H29.6003C29.0803 26.9351 28.667 27.3871 28.667 27.9426C28.667 28.6401 28.867 28.7434 29.3203 28.8984L33.3337 30.2546C34.187 30.5517 35.3337 31.1459 35.3337 33.0446C35.3337 34.6721 34.0136 35.9896 32.4003 35.9896Z" fill="#5D00F4"/>
<path d="M31 37.2812C30.4533 37.2812 30 36.8421 30 36.3125V24.6875C30 24.1579 30.4533 23.7188 31 23.7188C31.5467 23.7188 32 24.1579 32 24.6875V36.3125C32 36.8421 31.5467 37.2812 31 37.2812Z" fill="#5D00F4"/>
<path d="M31.0003 44.3853C23.0937 44.3853 16.667 38.1595 16.667 30.4999C16.667 22.8403 23.0937 16.6145 31.0003 16.6145C31.547 16.6145 32.0003 17.0537 32.0003 17.5833C32.0003 18.1128 31.547 18.552 31.0003 18.552C24.2003 18.552 18.667 23.9124 18.667 30.4999C18.667 37.0874 24.2003 42.4478 31.0003 42.4478C37.8003 42.4478 43.3337 37.0874 43.3337 30.4999C43.3337 29.9703 43.787 29.5312 44.3337 29.5312C44.8803 29.5312 45.3337 29.9703 45.3337 30.4999C45.3337 38.1595 38.907 44.3853 31.0003 44.3853Z" fill="#5D00F4"/>
<path d="M44.3333 23.7187C43.7867 23.7187 43.3333 23.2795 43.3333 22.7499V18.552H39C38.4533 18.552 38 18.1128 38 17.5833C38 17.0537 38.4533 16.6145 39 16.6145H44.3333C44.88 16.6145 45.3333 17.0537 45.3333 17.5833V22.7499C45.3333 23.2795 44.88 23.7187 44.3333 23.7187Z" fill="#5D00F4"/>
<path d="M37.6666 25.0105C37.4133 25.0105 37.1599 24.9201 36.9599 24.7264C36.5733 24.3518 36.5733 23.7318 36.9599 23.3572L43.6266 16.8989C44.0133 16.5243 44.6533 16.5243 45.0399 16.8989C45.4266 17.2734 45.4266 17.8934 45.0399 18.268L38.3733 24.7264C38.1733 24.9201 37.9199 25.0105 37.6666 25.0105Z" fill="#5D00F4"/>
</svg>
