<svg width="62" height="61" viewBox="0 0 62 61" fill="none" xmlns="http://www.w3.org/2000/svg">
<rect x="0.5" width="61" height="61" rx="30.5" fill="#2F2F2F"/>
<path d="M34.8752 44.3853H27.1252C20.1114 44.3853 17.1147 41.3887 17.1147 34.3749V26.6249C17.1147 19.6112 20.1114 16.6145 27.1252 16.6145H34.8752C41.8889 16.6145 44.8856 19.6112 44.8856 26.6249V34.3749C44.8856 41.3887 41.8889 44.3853 34.8752 44.3853ZM27.1252 18.552C21.1706 18.552 19.0522 20.6703 19.0522 26.6249V34.3749C19.0522 40.3295 21.1706 42.4478 27.1252 42.4478H34.8752C40.8297 42.4478 42.9481 40.3295 42.9481 34.3749V26.6249C42.9481 20.6703 40.8297 18.552 34.8752 18.552H27.1252Z" fill="#5D00F4"/>
<path d="M35.5208 39.8647C33.5575 39.8647 31.9688 38.2759 31.9688 36.3126V24.6876C31.9688 22.7242 33.5575 21.1355 35.5208 21.1355C37.4842 21.1355 39.0729 22.7242 39.0729 24.6876V36.3126C39.0729 38.2759 37.4842 39.8647 35.5208 39.8647ZM35.5208 23.073C34.6296 23.073 33.9062 23.7963 33.9062 24.6876V36.3126C33.9062 37.2038 34.6296 37.9272 35.5208 37.9272C36.4121 37.9272 37.1354 37.2038 37.1354 36.3126V24.6876C37.1354 23.7963 36.4121 23.073 35.5208 23.073Z" fill="#5D00F4"/>
<path d="M26.4793 39.8645C24.516 39.8645 22.9272 38.2758 22.9272 36.3124V31.7916C22.9272 29.8283 24.516 28.2395 26.4793 28.2395C28.4427 28.2395 30.0314 29.8283 30.0314 31.7916V36.3124C30.0314 38.2758 28.4427 39.8645 26.4793 39.8645ZM26.4793 30.177C25.5881 30.177 24.8647 30.9003 24.8647 31.7916V36.3124C24.8647 37.2037 25.5881 37.927 26.4793 37.927C27.3706 37.927 28.0939 37.2037 28.0939 36.3124V31.7916C28.0939 30.9003 27.3706 30.177 26.4793 30.177Z" fill="#5D00F4"/>
</svg>
