<svg width="61" height="62" viewBox="0 0 61 62" fill="none" xmlns="http://www.w3.org/2000/svg">
<rect width="61" height="62" rx="30.5" fill="#2F2F2F"/>
<path d="M34.6979 36.3333C34.4525 36.3333 34.2071 36.2399 34.0134 36.0399L30.5 32.4133L26.9867 36.0399C26.6121 36.4266 25.9921 36.4266 25.6175 36.0399L21.4196 31.7066C21.045 31.3199 21.045 30.6799 21.4196 30.2933L25.6175 25.9599C25.9921 25.5733 26.6121 25.5733 26.9867 25.9599L30.5 29.5866L34.0134 25.9599C34.3879 25.5733 35.0079 25.5733 35.3825 25.9599L39.5804 30.2933C39.955 30.6799 39.955 31.3199 39.5804 31.7066L35.3825 36.0399C35.1888 36.2399 34.9434 36.3333 34.6979 36.3333ZM31.8692 30.9999L34.6979 33.9199L37.5267 30.9999L34.6979 28.0799L31.8692 30.9999ZM23.4734 30.9999L26.3021 33.9199L29.1309 30.9999L26.3021 28.0799L23.4734 30.9999Z" fill="#5D00F4"/>
<path d="M30.5002 45.3334C22.8406 45.3334 16.6147 38.9067 16.6147 31.0001C16.6147 23.0934 22.8406 16.6667 30.5002 16.6667C38.1597 16.6667 44.3856 23.0934 44.3856 31.0001C44.3856 38.9067 38.1597 45.3334 30.5002 45.3334ZM30.5002 18.6667C23.9127 18.6667 18.5522 24.2001 18.5522 31.0001C18.5522 37.8001 23.9127 43.3334 30.5002 43.3334C37.0877 43.3334 42.4481 37.8001 42.4481 31.0001C42.4481 24.2001 37.0877 18.6667 30.5002 18.6667Z" fill="#5D00F4"/>
</svg>
