<svg width="62" height="61" viewBox="0 0 62 61" fill="none" xmlns="http://www.w3.org/2000/svg">
<rect width="62" height="61" rx="30.5" fill="#2F2F2F"/>
<path d="M31 22.1431C26.2133 22.1431 21.4267 20.9031 17.1467 18.4231C16.6667 18.1518 16.52 17.5576 16.8 17.0926C17.08 16.6276 17.6933 16.4855 18.1733 16.7568C26.08 21.3551 35.9067 21.3551 43.8133 16.7568C44.28 16.4855 44.9067 16.6276 45.1867 17.0926C45.4667 17.5576 45.32 18.1518 44.84 18.4231C40.5733 20.9031 35.7867 22.1431 31 22.1431Z" fill="#5D00F4"/>
<path d="M44.3333 44.3853C44.16 44.3853 43.9867 44.3466 43.8133 44.2432C35.9067 39.6449 26.08 39.6449 18.1733 44.2432C17.7067 44.5145 17.08 44.3724 16.8 43.9074C16.52 43.4424 16.6667 42.8482 17.1467 42.5769C25.6933 37.6169 36.3067 37.6169 44.84 42.5769C45.32 42.8482 45.4667 43.4424 45.1867 43.9074C45 44.2174 44.6667 44.3853 44.3333 44.3853Z" fill="#5D00F4"/>
<path d="M22.1065 42.3316C21.9465 42.3316 21.7865 42.2929 21.6265 42.2154C21.1465 41.9571 20.9599 41.3758 21.2265 40.8979C24.7999 34.4912 24.8399 26.8187 21.3465 20.3862L21.1865 20.0762C20.9332 19.5983 21.1199 19.017 21.6132 18.7716C22.1065 18.5262 22.7065 18.7071 22.9599 19.185L23.1199 19.495C26.9199 26.5087 26.8665 34.8658 22.9865 41.8279C22.8132 42.1508 22.4665 42.3316 22.1065 42.3316Z" fill="#5D00F4"/>
<path d="M39.8935 42.3316C39.5335 42.3316 39.2002 42.1508 39.0135 41.8279C35.1335 34.8529 35.0802 26.5087 38.8802 19.495L39.0402 19.185C39.2935 18.7071 39.9068 18.5262 40.3868 18.7716C40.8802 19.017 41.0668 19.6112 40.8135 20.0762L40.6535 20.3862C37.1602 26.8316 37.2135 34.5041 40.7735 40.8979C41.0402 41.3758 40.8535 41.9571 40.3735 42.2154C40.2135 42.2929 40.0535 42.3316 39.8935 42.3316Z" fill="#5D00F4"/>
</svg>
