<svg width="62" height="62" viewBox="0 0 62 62" fill="none" xmlns="http://www.w3.org/2000/svg">
<rect x="0.5" width="61" height="62" rx="30.5" fill="#2F2F2F"/>
<path d="M43.9167 23.4133H31C30.4704 23.4133 30.0312 22.96 30.0312 22.4133C30.0312 21.8667 30.4704 21.4133 31 21.4133H43.9167C44.4462 21.4133 44.8854 21.8667 44.8854 22.4133C44.8854 22.9733 44.4462 23.4133 43.9167 23.4133Z" fill="#5D00F4"/>
<path d="M41.0489 30.0001H33.8802C31.0514 30.0001 30.0439 28.9734 30.0439 26.0667V20.6001C30.0439 17.6934 31.0514 16.6667 33.8802 16.6667H41.0489C43.8777 16.6667 44.8852 17.6934 44.8852 20.6001V26.0801C44.8852 28.9734 43.8777 30.0001 41.0489 30.0001ZM33.8673 18.6667C32.1106 18.6667 31.9685 18.8134 31.9685 20.6001V26.0801C31.9685 27.8667 32.1106 28.0134 33.8673 28.0134H41.036C42.7927 28.0134 42.9348 27.8667 42.9348 26.0801V20.6001C42.9348 18.8134 42.7927 18.6667 41.036 18.6667H33.8673Z" fill="#5D00F4"/>
<path d="M31.0002 38.7466H18.0835C17.5539 38.7466 17.1147 38.2932 17.1147 37.7466C17.1147 37.1999 17.5539 36.7466 18.0835 36.7466H31.0002C31.5297 36.7466 31.9689 37.1999 31.9689 37.7466C31.9689 38.3066 31.5297 38.7466 31.0002 38.7466Z" fill="#5D00F4"/>
<path d="M28.1319 45.3333H20.9632C18.1345 45.3333 17.127 44.3067 17.127 41.4V35.9333C17.127 33.0267 18.1345 32 20.9632 32H28.1319C30.9607 32 31.9682 33.0267 31.9682 35.9333V41.4133C31.9682 44.3067 30.9607 45.3333 28.1319 45.3333ZM20.9503 34C19.1936 34 19.0515 34.1467 19.0515 35.9333V41.4133C19.0515 43.2 19.1936 43.3467 20.9503 43.3467H28.119C29.8757 43.3467 30.0178 43.2 30.0178 41.4133V35.9333C30.0178 34.1467 29.8757 34 28.119 34H20.9503Z" fill="#5D00F4"/>
<path d="M34.8751 45.3332C34.5263 45.3332 34.2034 45.1332 34.0355 44.8266C33.8676 44.5066 33.8676 44.1332 34.0484 43.8132L35.4047 41.4799C35.6759 41.0132 36.2701 40.8532 36.7351 41.1332C37.2001 41.4132 37.3422 42.0266 37.0709 42.5066L36.7222 43.1066C40.2872 42.2399 42.9609 38.9332 42.9609 34.9866C42.9609 34.4399 43.4001 33.9866 43.9297 33.9866C44.4593 33.9866 44.8984 34.4399 44.8984 34.9866C44.8855 40.6932 40.3905 45.3332 34.8751 45.3332Z" fill="#5D00F4"/>
<path d="M18.0835 28.0001C17.5539 28.0001 17.1147 27.5467 17.1147 27.0001C17.1147 21.3067 21.6097 16.6667 27.1252 16.6667C27.4739 16.6667 27.7968 16.8667 27.9647 17.1734C28.1327 17.4934 28.1327 17.8667 27.9518 18.1867L26.5956 20.5201C26.3243 20.9867 25.7302 21.1467 25.2652 20.8667C24.8002 20.5867 24.6581 19.9734 24.9293 19.4934L25.2781 18.8934C21.7131 19.7601 19.0393 23.0667 19.0393 27.0134C19.0522 27.5467 18.6131 28.0001 18.0835 28.0001Z" fill="#5D00F4"/>
</svg>
