<svg width="272" height="342" viewBox="0 0 272 342" fill="none" xmlns="http://www.w3.org/2000/svg">
<g clip-path="url(#clip0_238_1619)">
<rect width="375" height="413" rx="15" fill="black"/>
<path d="M33.9998 68.2687C33.8098 68.2687 33.6198 68.1987 33.4698 68.0487L26.9498 61.5287C25.8898 60.4687 25.8898 58.7287 26.9498 57.6687L33.4698 51.1487C33.7598 50.8587 34.2398 50.8587 34.5298 51.1487C34.8198 51.4387 34.8198 51.9187 34.5298 52.2087L28.0098 58.7287C27.5298 59.2087 27.5298 59.9887 28.0098 60.4687L34.5298 66.9887C34.8198 67.2787 34.8198 67.7587 34.5298 68.0487C34.3798 68.1887 34.1898 68.2687 33.9998 68.2687Z" fill="white"/>
<path d="M153.583 57.8842C153.518 57.3127 153.253 56.87 152.786 56.5561C152.319 56.2382 151.731 56.0792 151.023 56.0792C150.516 56.0792 150.077 56.1597 149.707 56.3207C149.337 56.4776 149.049 56.695 148.844 56.9727C148.642 57.2463 148.542 57.5582 148.542 57.9084C148.542 58.2022 148.61 58.4557 148.747 58.669C148.888 58.8823 149.071 59.0614 149.296 59.2063C149.526 59.3472 149.771 59.4659 150.033 59.5625C150.295 59.6551 150.546 59.7315 150.788 59.7919L151.995 60.1058C152.389 60.2024 152.794 60.3332 153.208 60.4982C153.623 60.6632 154.007 60.8806 154.361 61.1502C154.716 61.4199 155.001 61.7539 155.219 62.1523C155.44 62.5508 155.551 63.0277 155.551 63.5831C155.551 64.2834 155.37 64.9052 155.007 65.4485C154.649 65.9918 154.128 66.4205 153.444 66.7344C152.764 67.0483 151.941 67.2053 150.975 67.2053C150.049 67.2053 149.248 67.0584 148.572 66.7646C147.896 66.4708 147.367 66.0542 146.984 65.5149C146.602 64.9716 146.391 64.3277 146.35 63.5831H148.222C148.258 64.0298 148.403 64.4021 148.656 64.6999C148.914 64.9937 149.242 65.2131 149.641 65.358C150.043 65.4988 150.484 65.5692 150.963 65.5692C151.49 65.5692 151.959 65.4867 152.369 65.3217C152.784 65.1527 153.11 64.9193 153.347 64.6214C153.585 64.3196 153.703 63.9674 153.703 63.565C153.703 63.1987 153.599 62.8989 153.389 62.6655C153.184 62.4321 152.904 62.2389 152.55 62.0859C152.2 61.933 151.804 61.7982 151.361 61.6815L149.9 61.283C148.91 61.0134 148.125 60.617 147.546 60.0938C146.97 59.5705 146.682 58.8783 146.682 58.017C146.682 57.3047 146.876 56.6829 147.262 56.1516C147.648 55.6204 148.172 55.2079 148.832 54.9141C149.492 54.6162 150.236 54.4673 151.065 54.4673C151.902 54.4673 152.641 54.6142 153.281 54.908C153.925 55.2018 154.432 55.6063 154.802 56.1214C155.172 56.6326 155.366 57.2202 155.382 57.8842H153.583ZM161.113 57.7273V59.1761H156.048V57.7273H161.113ZM157.407 55.5057H159.212V64.2773C159.212 64.6275 159.264 64.8911 159.369 65.0682C159.473 65.2412 159.608 65.36 159.773 65.4244C159.942 65.4847 160.125 65.5149 160.323 65.5149C160.467 65.5149 160.594 65.5049 160.703 65.4847C160.812 65.4646 160.896 65.4485 160.956 65.4364L161.282 66.9276C161.178 66.9678 161.029 67.008 160.836 67.0483C160.643 67.0926 160.401 67.1167 160.111 67.1207C159.636 67.1288 159.194 67.0443 158.783 66.8672C158.373 66.6901 158.041 66.4164 157.787 66.0462C157.533 65.6759 157.407 65.2111 157.407 64.6516V55.5057ZM166.066 67.1871C165.197 67.1871 164.438 66.9879 163.79 66.5895C163.143 66.1911 162.639 65.6336 162.281 64.9173C161.923 64.2009 161.744 63.3638 161.744 62.4059C161.744 61.444 161.923 60.6029 162.281 59.8825C162.639 59.162 163.143 58.6026 163.79 58.2042C164.438 57.8058 165.197 57.6065 166.066 57.6065C166.936 57.6065 167.694 57.8058 168.342 58.2042C168.99 58.6026 169.493 59.162 169.852 59.8825C170.21 60.6029 170.389 61.444 170.389 62.4059C170.389 63.3638 170.21 64.2009 169.852 64.9173C169.493 65.6336 168.99 66.1911 168.342 66.5895C167.694 66.9879 166.936 67.1871 166.066 67.1871ZM166.072 65.6719C166.636 65.6719 167.103 65.523 167.473 65.2251C167.843 64.9273 168.117 64.5309 168.294 64.0359C168.475 63.5408 168.566 62.9955 168.566 62.3999C168.566 61.8082 168.475 61.2649 168.294 60.7699C168.117 60.2708 167.843 59.8704 167.473 59.5685C167.103 59.2667 166.636 59.1158 166.072 59.1158C165.505 59.1158 165.034 59.2667 164.66 59.5685C164.29 59.8704 164.014 60.2708 163.833 60.7699C163.656 61.2649 163.567 61.8082 163.567 62.3999C163.567 62.9955 163.656 63.5408 163.833 64.0359C164.014 64.5309 164.29 64.9273 164.66 65.2251C165.034 65.523 165.505 65.6719 166.072 65.6719ZM171.554 70.4773V57.7273H173.316V59.2305H173.467C173.572 59.0373 173.723 58.8139 173.92 58.5604C174.117 58.3068 174.391 58.0855 174.741 57.8963C175.091 57.7031 175.554 57.6065 176.13 57.6065C176.878 57.6065 177.546 57.7957 178.134 58.174C178.722 58.5523 179.182 59.0977 179.516 59.81C179.854 60.5224 180.023 61.3796 180.023 62.3817C180.023 63.3839 179.856 64.2431 179.522 64.9595C179.188 65.6719 178.73 66.2212 178.146 66.6076C177.562 66.9899 176.896 67.1811 176.148 67.1811C175.584 67.1811 175.123 67.0865 174.765 66.8974C174.411 66.7082 174.133 66.4869 173.932 66.2333C173.731 65.9798 173.576 65.7544 173.467 65.5572H173.359V70.4773H171.554ZM173.322 62.3636C173.322 63.0156 173.417 63.5871 173.606 64.0781C173.795 64.5691 174.069 64.9535 174.427 65.2312C174.785 65.5049 175.224 65.6417 175.743 65.6417C176.283 65.6417 176.733 65.4988 177.096 65.2131C177.458 64.9233 177.731 64.5309 177.917 64.0359C178.106 63.5408 178.2 62.9834 178.2 62.3636C178.2 61.7519 178.108 61.2025 177.923 60.7156C177.742 60.2286 177.468 59.8442 177.102 59.5625C176.739 59.2808 176.287 59.1399 175.743 59.1399C175.22 59.1399 174.777 59.2747 174.415 59.5444C174.057 59.814 173.785 60.1903 173.6 60.6733C173.415 61.1562 173.322 61.7197 173.322 62.3636ZM186.659 60.9933V62.5568H181.178V60.9933H186.659ZM188.36 67V54.6364H190.225V65.3942H195.828V67H188.36ZM200.867 67.1871C199.997 67.1871 199.239 66.9879 198.591 66.5895C197.943 66.1911 197.44 65.6336 197.081 64.9173C196.723 64.2009 196.544 63.3638 196.544 62.4059C196.544 61.444 196.723 60.6029 197.081 59.8825C197.44 59.162 197.943 58.6026 198.591 58.2042C199.239 57.8058 199.997 57.6065 200.867 57.6065C201.736 57.6065 202.495 57.8058 203.143 58.2042C203.79 58.6026 204.294 59.162 204.652 59.8825C205.01 60.6029 205.189 61.444 205.189 62.4059C205.189 63.3638 205.01 64.2009 204.652 64.9173C204.294 65.6336 203.79 66.1911 203.143 66.5895C202.495 66.9879 201.736 67.1871 200.867 67.1871ZM200.873 65.6719C201.436 65.6719 201.903 65.523 202.273 65.2251C202.643 64.9273 202.917 64.5309 203.094 64.0359C203.275 63.5408 203.366 62.9955 203.366 62.3999C203.366 61.8082 203.275 61.2649 203.094 60.7699C202.917 60.2708 202.643 59.8704 202.273 59.5685C201.903 59.2667 201.436 59.1158 200.873 59.1158C200.305 59.1158 199.834 59.2667 199.46 59.5685C199.09 59.8704 198.814 60.2708 198.633 60.7699C198.456 61.2649 198.367 61.8082 198.367 62.3999C198.367 62.9955 198.456 63.5408 198.633 64.0359C198.814 64.5309 199.09 64.9273 199.46 65.2251C199.834 65.523 200.305 65.6719 200.873 65.6719ZM213.302 59.9911L211.666 60.2809C211.598 60.0716 211.489 59.8724 211.34 59.6832C211.195 59.4941 210.998 59.3391 210.749 59.2184C210.499 59.0977 210.187 59.0373 209.813 59.0373C209.302 59.0373 208.875 59.152 208.533 59.3814C208.191 59.6068 208.02 59.8986 208.02 60.2567C208.02 60.5666 208.135 60.8162 208.364 61.0053C208.594 61.1945 208.964 61.3494 209.475 61.4702L210.948 61.8082C211.801 62.0054 212.437 62.3093 212.856 62.7198C213.274 63.1303 213.483 63.6636 213.483 64.3196C213.483 64.875 213.322 65.37 213.001 65.8047C212.683 66.2353 212.238 66.5734 211.666 66.8189C211.099 67.0644 210.441 67.1871 209.692 67.1871C208.654 67.1871 207.807 66.9658 207.151 66.5231C206.495 66.0763 206.092 65.4425 205.943 64.6214L207.688 64.3558C207.797 64.8106 208.02 65.1547 208.358 65.3881C208.696 65.6175 209.137 65.7322 209.68 65.7322C210.272 65.7322 210.745 65.6095 211.099 65.364C211.453 65.1145 211.63 64.8106 211.63 64.4524C211.63 64.1626 211.521 63.9192 211.304 63.7219C211.091 63.5247 210.763 63.3758 210.32 63.2752L208.751 62.9311C207.885 62.7339 207.245 62.42 206.831 61.9893C206.42 61.5587 206.215 61.0134 206.215 60.3533C206.215 59.806 206.368 59.3271 206.674 58.9165C206.98 58.506 207.402 58.1861 207.942 57.9567C208.481 57.7232 209.099 57.6065 209.795 57.6065C210.797 57.6065 211.586 57.8239 212.161 58.2585C212.737 58.6892 213.117 59.2667 213.302 59.9911ZM221.567 59.9911L219.931 60.2809C219.862 60.0716 219.754 59.8724 219.605 59.6832C219.46 59.4941 219.263 59.3391 219.013 59.2184C218.763 59.0977 218.452 59.0373 218.077 59.0373C217.566 59.0373 217.14 59.152 216.797 59.3814C216.455 59.6068 216.284 59.8986 216.284 60.2567C216.284 60.5666 216.399 60.8162 216.628 61.0053C216.858 61.1945 217.228 61.3494 217.739 61.4702L219.212 61.8082C220.065 62.0054 220.701 62.3093 221.12 62.7198C221.538 63.1303 221.748 63.6636 221.748 64.3196C221.748 64.875 221.587 65.37 221.265 65.8047C220.947 66.2353 220.502 66.5734 219.931 66.8189C219.363 67.0644 218.705 67.1871 217.957 67.1871C216.918 67.1871 216.071 66.9658 215.415 66.5231C214.759 66.0763 214.357 65.4425 214.208 64.6214L215.952 64.3558C216.061 64.8106 216.284 65.1547 216.622 65.3881C216.96 65.6175 217.401 65.7322 217.944 65.7322C218.536 65.7322 219.009 65.6095 219.363 65.364C219.717 65.1145 219.894 64.8106 219.894 64.4524C219.894 64.1626 219.786 63.9192 219.568 63.7219C219.355 63.5247 219.027 63.3758 218.584 63.2752L217.015 62.9311C216.149 62.7339 215.51 62.42 215.095 61.9893C214.685 61.5587 214.479 61.0134 214.479 60.3533C214.479 59.806 214.632 59.3271 214.938 58.9165C215.244 58.506 215.667 58.1861 216.206 57.9567C216.745 57.7232 217.363 57.6065 218.059 57.6065C219.061 57.6065 219.85 57.8239 220.426 58.2585C221.001 58.6892 221.381 59.2667 221.567 59.9911Z" fill="white"/>
<rect x="12" y="100" width="353" height="38" rx="7" fill="url(#paint0_linear_238_1619)"/>
<path d="M85.3884 124V114.545H88.8508C89.5217 114.545 90.0772 114.656 90.5173 114.878C90.9574 115.096 91.2867 115.393 91.5052 115.769C91.7238 116.141 91.833 116.561 91.833 117.029C91.833 117.423 91.7607 117.755 91.616 118.026C91.4714 118.294 91.2775 118.509 91.0344 118.673C90.7943 118.833 90.5296 118.95 90.2403 119.023V119.116C90.5543 119.131 90.8605 119.233 91.159 119.42C91.4606 119.605 91.7099 119.868 91.9069 120.21C92.1038 120.551 92.2023 120.967 92.2023 121.456C92.2023 121.94 92.0885 122.373 91.8607 122.758C91.636 123.14 91.2883 123.443 90.8174 123.668C90.3465 123.889 89.7448 124 89.0123 124H85.3884ZM86.8149 122.777H88.8739C89.5571 122.777 90.0464 122.644 90.3419 122.38C90.6373 122.115 90.7851 121.784 90.7851 121.387C90.7851 121.089 90.7097 120.815 90.5589 120.565C90.4081 120.316 90.1926 120.118 89.9126 119.97C89.6356 119.822 89.3063 119.748 88.9246 119.748H86.8149V122.777ZM86.8149 118.636H88.7261C89.0462 118.636 89.334 118.574 89.5894 118.451C89.8479 118.328 90.0526 118.156 90.2034 117.934C90.3573 117.709 90.4342 117.445 90.4342 117.14C90.4342 116.749 90.2973 116.421 90.0234 116.157C89.7494 115.892 89.3293 115.76 88.7631 115.76H86.8149V118.636ZM97.6253 121.059V116.909H99.0103V124H97.653V122.772H97.5791C97.416 123.151 97.1544 123.466 96.7943 123.718C96.4373 123.968 95.9926 124.092 95.4602 124.092C95.0047 124.092 94.6015 123.992 94.2507 123.792C93.9029 123.589 93.629 123.289 93.4289 122.892C93.232 122.495 93.1335 122.004 93.1335 121.419V116.909H94.5138V121.253C94.5138 121.736 94.6477 122.121 94.9154 122.407C95.1832 122.694 95.531 122.837 95.9588 122.837C96.2173 122.837 96.4743 122.772 96.7297 122.643C96.9882 122.513 97.2021 122.318 97.3714 122.056C97.5438 121.795 97.6284 121.462 97.6253 121.059ZM101.087 126.659C100.881 126.659 100.693 126.642 100.524 126.608C100.355 126.578 100.229 126.544 100.146 126.507L100.478 125.376C100.73 125.443 100.955 125.473 101.152 125.463C101.349 125.454 101.523 125.38 101.674 125.242C101.828 125.103 101.963 124.877 102.08 124.563L102.251 124.092L99.6563 116.909H101.134L102.929 122.412H103.003L104.799 116.909H106.281L103.359 124.946C103.223 125.316 103.051 125.628 102.842 125.884C102.632 126.142 102.383 126.336 102.094 126.465C101.805 126.594 101.469 126.659 101.087 126.659Z" fill="#03EED8"/>
<path d="M274.26 117.029C274.211 116.592 274.008 116.254 273.651 116.013C273.294 115.77 272.844 115.649 272.303 115.649C271.915 115.649 271.579 115.71 271.296 115.833C271.013 115.953 270.793 116.12 270.636 116.332C270.482 116.541 270.405 116.78 270.405 117.048C270.405 117.272 270.458 117.466 270.562 117.629C270.67 117.792 270.81 117.929 270.982 118.04C271.158 118.148 271.345 118.239 271.545 118.312C271.746 118.383 271.938 118.442 272.123 118.488L273.046 118.728C273.347 118.802 273.657 118.902 273.974 119.028C274.291 119.154 274.585 119.32 274.855 119.527C275.126 119.733 275.345 119.988 275.511 120.293C275.68 120.598 275.765 120.962 275.765 121.387C275.765 121.923 275.626 122.398 275.349 122.814C275.076 123.229 274.677 123.557 274.154 123.797C273.634 124.037 273.004 124.157 272.266 124.157C271.558 124.157 270.945 124.045 270.428 123.82C269.911 123.595 269.507 123.277 269.214 122.864C268.922 122.449 268.76 121.956 268.729 121.387H270.161C270.188 121.729 270.299 122.013 270.493 122.241C270.69 122.466 270.941 122.634 271.245 122.744C271.553 122.852 271.89 122.906 272.256 122.906C272.66 122.906 273.018 122.843 273.332 122.717C273.649 122.587 273.898 122.409 274.08 122.181C274.262 121.95 274.352 121.681 274.352 121.373C274.352 121.093 274.272 120.864 274.112 120.685C273.955 120.507 273.741 120.359 273.471 120.242C273.203 120.125 272.9 120.022 272.561 119.933L271.444 119.628C270.687 119.422 270.087 119.119 269.643 118.719C269.203 118.319 268.983 117.789 268.983 117.131C268.983 116.586 269.131 116.11 269.427 115.704C269.722 115.298 270.122 114.982 270.627 114.758C271.132 114.53 271.701 114.416 272.335 114.416C272.975 114.416 273.54 114.529 274.029 114.753C274.522 114.978 274.909 115.287 275.192 115.681C275.476 116.072 275.623 116.521 275.636 117.029H274.26ZM279.765 124.143C279.066 124.143 278.465 123.994 277.96 123.695C277.458 123.394 277.07 122.971 276.796 122.426C276.526 121.878 276.39 121.236 276.39 120.501C276.39 119.774 276.526 119.134 276.796 118.58C277.07 118.026 277.452 117.594 277.941 117.283C278.434 116.972 279.009 116.817 279.668 116.817C280.068 116.817 280.456 116.883 280.831 117.015C281.207 117.148 281.544 117.355 281.842 117.638C282.141 117.922 282.376 118.289 282.549 118.742C282.721 119.191 282.807 119.737 282.807 120.381V120.87H277.17V119.836H281.455C281.455 119.473 281.381 119.151 281.233 118.871C281.085 118.588 280.877 118.365 280.61 118.202C280.345 118.039 280.034 117.957 279.677 117.957C279.289 117.957 278.951 118.052 278.662 118.243C278.375 118.431 278.154 118.677 277.997 118.982C277.843 119.283 277.766 119.611 277.766 119.965V120.773C277.766 121.247 277.849 121.65 278.015 121.983C278.185 122.315 278.42 122.569 278.722 122.744C279.023 122.917 279.376 123.003 279.779 123.003C280.04 123.003 280.279 122.966 280.494 122.892C280.71 122.815 280.896 122.701 281.053 122.55C281.21 122.4 281.33 122.213 281.413 121.992L282.719 122.227C282.615 122.612 282.427 122.949 282.156 123.238C281.888 123.525 281.551 123.748 281.145 123.908C280.742 124.065 280.282 124.143 279.765 124.143ZM285.069 114.545V124H283.689V114.545H285.069ZM287.656 114.545V124H286.276V114.545H287.656Z" fill="#F80F0F"/>
<line x1="188.285" y1="134.009" x2="187.968" y2="104.011" stroke="#03EED8" stroke-width="2"/>
<rect x="12" y="100" width="353" height="38" rx="7" stroke="url(#paint1_angular_238_1619)" stroke-width="2"/>
<g clip-path="url(#clip1_238_1619)">
<rect x="148" y="181" width="212" height="46" rx="8" fill="black"/>
<path d="M265.56 199.054H268.057L269.493 204.02L270.027 206.158L270.562 204.02L271.961 199.054H274.458L275 209H273.411L273.111 201.808L273.147 199.881C273.035 200.218 272.918 200.589 272.796 200.995C272.679 201.4 272.557 201.822 272.43 202.262C272.308 202.696 272.183 203.141 272.056 203.595C271.934 204.044 271.81 204.488 271.683 204.928C271.561 205.362 271.438 205.782 271.316 206.188C271.199 206.588 271.084 206.954 270.972 207.286H269.09L266.849 199.859L266.878 201.837L266.629 209H265.04L265.56 199.054ZM275.496 206.861C275.496 206.456 275.554 206.112 275.671 205.829C275.789 205.545 275.959 205.313 276.184 205.133C276.414 204.952 276.689 204.818 277.012 204.73C277.339 204.637 277.712 204.579 278.132 204.554L279.766 204.466V203.88C279.766 203.617 279.741 203.399 279.692 203.229C279.648 203.058 279.573 202.921 279.465 202.818C279.358 202.716 279.214 202.645 279.033 202.606C278.857 202.562 278.638 202.54 278.374 202.54C278.11 202.54 277.859 202.569 277.62 202.628C277.385 202.687 277.18 202.75 277.004 202.818C276.794 202.901 276.602 202.994 276.426 203.097C276.318 202.945 276.233 202.801 276.169 202.665C276.106 202.523 276.057 202.396 276.023 202.284C275.979 202.157 275.95 202.035 275.935 201.917C276.169 201.8 276.421 201.698 276.689 201.61C276.924 201.532 277.192 201.461 277.495 201.397C277.803 201.334 278.125 201.302 278.462 201.302C279.019 201.302 279.48 201.351 279.846 201.449C280.212 201.546 280.503 201.695 280.718 201.896C280.938 202.091 281.089 202.34 281.172 202.643C281.26 202.94 281.304 203.294 281.304 203.705V207.792L281.919 208.539V209H280.564L280 208.348H279.736C279.712 208.373 279.646 208.429 279.539 208.517C279.436 208.6 279.302 208.69 279.136 208.788C278.975 208.88 278.789 208.963 278.579 209.037C278.374 209.11 278.154 209.146 277.92 209.146C277.554 209.146 277.222 209.093 276.924 208.985C276.626 208.873 276.37 208.717 276.155 208.517C275.945 208.312 275.781 208.07 275.664 207.792C275.552 207.508 275.496 207.198 275.496 206.861ZM277.092 206.729C277.092 206.954 277.124 207.142 277.188 207.293C277.251 207.44 277.339 207.557 277.451 207.645C277.568 207.733 277.708 207.794 277.869 207.828C278.035 207.862 278.218 207.879 278.418 207.879C278.604 207.879 278.777 207.857 278.938 207.813C279.104 207.765 279.248 207.711 279.37 207.652C279.512 207.589 279.644 207.513 279.766 207.425V205.455L278.293 205.55C278.064 205.565 277.871 205.604 277.715 205.667C277.563 205.731 277.441 205.814 277.349 205.917C277.256 206.019 277.19 206.141 277.151 206.283C277.112 206.419 277.092 206.568 277.092 206.729ZM283.476 201.434L284.23 202.225C284.284 202.103 284.353 201.988 284.436 201.881C284.523 201.769 284.624 201.671 284.736 201.588C284.853 201.505 284.982 201.439 285.124 201.39C285.271 201.341 285.429 201.317 285.6 201.317C285.742 201.317 285.878 201.329 286.01 201.354C286.142 201.373 286.286 201.41 286.442 201.463C286.447 201.473 286.452 201.512 286.457 201.581C286.467 201.649 286.472 201.734 286.472 201.837C286.472 201.915 286.467 202.008 286.457 202.115C286.447 202.218 286.43 202.325 286.406 202.438C286.386 202.545 286.354 202.652 286.311 202.76C286.271 202.867 286.22 202.96 286.157 203.038L286.018 203.075C285.92 203.026 285.81 202.984 285.688 202.95C285.571 202.916 285.449 202.899 285.322 202.899C285.126 202.899 284.963 202.914 284.831 202.943C284.699 202.967 284.592 202.994 284.509 203.023C284.411 203.058 284.333 203.097 284.274 203.141V209H282.707V202.855L282.128 202.262V201.434H283.476ZM286.93 198.453H288.424V204.027L288.351 205.089L288.739 204.627L291.09 201.515H292.863L290.482 204.532L289.875 205.111L290.351 205.543L292.995 209H291.215L288.695 205.616L288.351 205.177L288.424 206.51V209H286.93V198.453ZM292.97 205.331C292.97 204.627 293.055 204.022 293.226 203.514C293.397 203.006 293.636 202.589 293.944 202.262C294.251 201.935 294.618 201.695 295.042 201.544C295.472 201.388 295.943 201.31 296.456 201.31C296.93 201.31 297.352 201.39 297.723 201.551C298.099 201.708 298.417 201.93 298.675 202.218C298.934 202.506 299.132 202.85 299.269 203.25C299.405 203.651 299.474 204.093 299.474 204.576C299.474 204.742 299.466 204.896 299.452 205.038C299.437 205.179 299.42 205.301 299.4 205.404C299.381 205.526 299.359 205.636 299.334 205.733L294.53 205.711C294.535 206.146 294.581 206.507 294.669 206.795C294.757 207.079 294.886 207.303 295.057 207.469C295.233 207.635 295.453 207.752 295.716 207.821C295.98 207.884 296.292 207.916 296.654 207.916C296.961 207.916 297.237 207.896 297.481 207.857C297.726 207.818 297.933 207.772 298.104 207.718C298.299 207.66 298.475 207.591 298.631 207.513C298.705 207.684 298.761 207.843 298.8 207.989C298.844 208.136 298.875 208.263 298.895 208.37C298.915 208.497 298.929 208.609 298.939 208.707C298.778 208.79 298.583 208.863 298.353 208.927C298.158 208.98 297.918 209.029 297.635 209.073C297.352 209.122 297.025 209.146 296.654 209.146C296.068 209.146 295.545 209.081 295.086 208.949C294.632 208.817 294.247 208.602 293.929 208.304C293.617 208.001 293.377 207.608 293.211 207.125C293.05 206.637 292.97 206.039 292.97 205.331ZM297.906 204.642V204.393C297.906 204.085 297.867 203.814 297.789 203.58C297.716 203.341 297.613 203.141 297.481 202.979C297.35 202.818 297.193 202.696 297.013 202.613C296.832 202.53 296.637 202.489 296.427 202.489C296.119 202.489 295.848 202.53 295.614 202.613C295.379 202.691 295.182 202.818 295.021 202.994C294.864 203.165 294.747 203.387 294.669 203.661C294.591 203.934 294.552 204.261 294.552 204.642H297.906ZM300.635 202.65H299.676C299.671 202.596 299.666 202.538 299.661 202.474C299.656 202.42 299.651 202.357 299.646 202.284C299.646 202.21 299.646 202.13 299.646 202.042C299.646 201.954 299.649 201.874 299.654 201.8C299.659 201.722 299.666 201.627 299.676 201.515H300.635V200.35L301.478 199.398H302.129V201.515H304.202C304.212 201.563 304.219 201.622 304.224 201.69C304.234 201.759 304.239 201.825 304.239 201.888C304.239 202 304.227 202.103 304.202 202.196C304.183 202.289 304.161 202.369 304.136 202.438C304.107 202.516 304.073 202.586 304.034 202.65H302.129V206.898C302.129 207.254 302.188 207.513 302.305 207.674C302.427 207.835 302.62 207.916 302.884 207.916C302.996 207.916 303.113 207.904 303.235 207.879C303.362 207.85 303.482 207.816 303.594 207.777C303.721 207.733 303.851 207.684 303.982 207.63C304.08 207.757 304.156 207.882 304.209 208.004C304.268 208.126 304.31 208.236 304.334 208.333C304.363 208.446 304.38 208.551 304.385 208.648C304.249 208.741 304.095 208.824 303.924 208.897C303.772 208.961 303.592 209.017 303.382 209.066C303.172 209.12 302.93 209.146 302.657 209.146C302.276 209.146 301.956 209.098 301.697 209C301.443 208.907 301.236 208.768 301.075 208.583C300.918 208.392 300.806 208.158 300.738 207.879C300.669 207.596 300.635 207.271 300.635 206.905V202.65Z" fill="white"/>
</g>
<rect x="148.5" y="181.5" width="211" height="45" rx="7.5" stroke="#171925"/>
<rect x="15.5" y="181.5" width="218" height="45" rx="7.5" fill="#171925"/>
<g clip-path="url(#clip2_238_1619)">
<path d="M209 216.5C214.523 216.5 219 211.687 219 205.75C219 199.813 214.523 195 209 195C203.477 195 199 199.813 199 205.75C199 211.687 203.477 216.5 209 216.5Z" fill="#0B0894"/>
<path d="M208.993 206.122L204.792 205.734L208.993 203.179V206.122H208.993ZM208.993 209.118V213.781C207.533 211.337 205.923 208.646 204.625 206.469C206.156 207.396 207.755 208.366 208.993 209.119V209.118ZM208.993 202.354L204.625 204.974L208.993 197.688V202.354Z" fill="white"/>
<path d="M213.194 205.734L208.993 206.122V203.179L213.193 205.734H213.194ZM208.993 209.119C210.231 208.366 211.829 207.396 213.361 206.469C212.063 208.647 210.453 211.337 208.993 213.78V209.119ZM208.993 202.354V197.688L213.361 204.974L208.993 202.354Z" fill="white" fill-opacity="0.601"/>
<path opacity="0.2" fill-rule="evenodd" clip-rule="evenodd" d="M208.993 206.122L213.193 205.734L208.993 208.27V206.122Z" fill="white"/>
<path opacity="0.603" fill-rule="evenodd" clip-rule="evenodd" d="M208.993 206.122L204.792 205.734L208.993 208.27V206.122Z" fill="white"/>
</g>
<path d="M42.5036 211.199C41.4808 211.199 40.6072 210.905 39.8828 210.318C39.1631 209.726 38.6091 208.872 38.2209 207.754C37.8374 206.637 37.6456 205.295 37.6456 203.727C37.6456 202.165 37.8374 200.827 38.2209 199.714C38.6091 198.597 39.1655 197.742 39.8899 197.151C40.6191 196.554 41.4903 196.256 42.5036 196.256C43.5168 196.256 44.3857 196.554 45.1101 197.151C45.8393 197.742 46.3956 198.597 46.7791 199.714C47.1674 200.827 47.3615 202.165 47.3615 203.727C47.3615 205.295 47.1674 206.637 46.7791 207.754C46.3956 208.872 45.8416 209.726 45.1172 210.318C44.3975 210.905 43.5263 211.199 42.5036 211.199ZM42.5036 210.006C43.6257 210.006 44.5017 209.459 45.1314 208.365C45.7611 207.267 46.076 205.721 46.076 203.727C46.076 202.402 45.9316 201.27 45.6428 200.332C45.3587 199.39 44.9491 198.67 44.4141 198.173C43.8838 197.676 43.2469 197.428 42.5036 197.428C41.3909 197.428 40.5173 197.982 39.8828 199.089C39.2483 200.193 38.9311 201.739 38.9311 203.727C38.9311 205.053 39.0732 206.185 39.3572 207.122C39.6461 208.06 40.0556 208.775 40.5859 209.267C41.121 209.759 41.7602 210.006 42.5036 210.006Z" fill="white"/>
<rect x="15.5" y="181.5" width="218" height="45" rx="7.5" stroke="#171925"/>
<g clip-path="url(#clip3_238_1619)">
<rect x="148" y="267" width="212" height="46" rx="8" fill="black"/>
<path d="M254.504 296.199C253.481 296.199 252.607 295.905 251.883 295.318C251.163 294.726 250.609 293.872 250.221 292.754C249.837 291.637 249.646 290.295 249.646 288.727C249.646 287.165 249.837 285.827 250.221 284.714C250.609 283.597 251.165 282.742 251.89 282.151C252.619 281.554 253.49 281.256 254.504 281.256C255.517 281.256 256.386 281.554 257.11 282.151C257.839 282.742 258.396 283.597 258.779 284.714C259.167 285.827 259.362 287.165 259.362 288.727C259.362 290.295 259.167 291.637 258.779 292.754C258.396 293.872 257.842 294.726 257.117 295.318C256.397 295.905 255.526 296.199 254.504 296.199ZM254.504 295.006C255.626 295.006 256.502 294.459 257.131 293.365C257.761 292.267 258.076 290.721 258.076 288.727C258.076 287.402 257.932 286.27 257.643 285.332C257.359 284.39 256.949 283.67 256.414 283.173C255.884 282.676 255.247 282.428 254.504 282.428C253.391 282.428 252.517 282.982 251.883 284.089C251.248 285.193 250.931 286.739 250.931 288.727C250.931 290.053 251.073 291.185 251.357 292.122C251.646 293.06 252.056 293.775 252.586 294.267C253.121 294.759 253.76 295.006 254.504 295.006Z" fill="white"/>
</g>
<rect x="148.5" y="267.5" width="211" height="45" rx="7.5" stroke="#171925"/>
<rect x="15.5" y="267.5" width="218" height="45" rx="7.5" fill="#171925"/>
<path d="M42.5036 297.199C41.4808 297.199 40.6072 296.905 39.8828 296.318C39.1631 295.726 38.6091 294.872 38.2209 293.754C37.8374 292.637 37.6456 291.295 37.6456 289.727C37.6456 288.165 37.8374 286.827 38.2209 285.714C38.6091 284.597 39.1655 283.742 39.8899 283.151C40.6191 282.554 41.4903 282.256 42.5036 282.256C43.5168 282.256 44.3857 282.554 45.1101 283.151C45.8393 283.742 46.3956 284.597 46.7791 285.714C47.1674 286.827 47.3615 288.165 47.3615 289.727C47.3615 291.295 47.1674 292.637 46.7791 293.754C46.3956 294.872 45.8416 295.726 45.1172 296.318C44.3975 296.905 43.5263 297.199 42.5036 297.199ZM42.5036 296.006C43.6257 296.006 44.5017 295.459 45.1314 294.365C45.7611 293.267 46.076 291.721 46.076 289.727C46.076 288.402 45.9316 287.27 45.6428 286.332C45.3587 285.39 44.9491 284.67 44.4141 284.173C43.8838 283.676 43.2469 283.428 42.5036 283.428C41.3909 283.428 40.5173 283.982 39.8828 285.089C39.2483 286.193 38.9311 287.739 38.9311 289.727C38.9311 291.053 39.0732 292.185 39.3572 293.122C39.6461 294.06 40.0556 294.775 40.5859 295.267C41.121 295.759 41.7602 296.006 42.5036 296.006Z" fill="white"/>
<rect x="15.5" y="267.5" width="218" height="45" rx="7.5" stroke="#171925"/>
<path d="M241.228 171.727C241.228 172.418 241.104 173.014 240.854 173.517C240.605 174.02 240.263 174.408 239.828 174.68C239.394 174.953 238.897 175.089 238.339 175.089C237.781 175.089 237.284 174.953 236.85 174.68C236.415 174.408 236.073 174.02 235.824 173.517C235.575 173.014 235.45 172.418 235.45 171.727C235.45 171.037 235.575 170.44 235.824 169.938C236.073 169.435 236.415 169.047 236.85 168.774C237.284 168.501 237.781 168.365 238.339 168.365C238.897 168.365 239.394 168.501 239.828 168.774C240.263 169.047 240.605 169.435 240.854 169.938C241.104 170.44 241.228 171.037 241.228 171.727ZM240.461 171.727C240.461 171.161 240.366 170.682 240.177 170.292C239.989 169.902 239.735 169.607 239.413 169.407C239.093 169.207 238.735 169.107 238.339 169.107C237.943 169.107 237.584 169.207 237.262 169.407C236.942 169.607 236.688 169.902 236.498 170.292C236.311 170.682 236.217 171.161 236.217 171.727C236.217 172.294 236.311 172.772 236.498 173.162C236.688 173.552 236.942 173.847 237.262 174.048C237.584 174.248 237.943 174.348 238.339 174.348C238.735 174.348 239.093 174.248 239.413 174.048C239.735 173.847 239.989 173.552 240.177 173.162C240.366 172.772 240.461 172.294 240.461 171.727ZM242.279 175V170.091H243.007V170.832H243.059C243.148 170.589 243.31 170.392 243.544 170.241C243.779 170.09 244.043 170.014 244.337 170.014C244.392 170.014 244.462 170.015 244.545 170.017C244.628 170.02 244.691 170.023 244.733 170.027V170.794C244.708 170.788 244.649 170.778 244.558 170.765C244.468 170.75 244.373 170.743 244.273 170.743C244.034 170.743 243.821 170.793 243.634 170.893C243.449 170.991 243.302 171.127 243.193 171.302C243.086 171.475 243.033 171.672 243.033 171.893V175H242.279ZM247.152 175.102C246.743 175.102 246.381 174.999 246.068 174.792C245.755 174.583 245.51 174.289 245.333 173.91C245.156 173.529 245.068 173.078 245.068 172.558C245.068 172.043 245.156 171.595 245.333 171.216C245.51 170.837 245.756 170.544 246.071 170.337C246.387 170.13 246.751 170.027 247.164 170.027C247.484 170.027 247.737 170.08 247.922 170.187C248.109 170.291 248.252 170.411 248.35 170.545C248.45 170.677 248.528 170.786 248.584 170.871H248.647V168.455H249.402V175H248.673V174.246H248.584C248.528 174.335 248.449 174.448 248.347 174.585C248.245 174.719 248.099 174.839 247.909 174.946C247.72 175.05 247.467 175.102 247.152 175.102ZM247.254 174.425C247.557 174.425 247.812 174.346 248.021 174.188C248.23 174.028 248.389 173.808 248.497 173.527C248.606 173.243 248.66 172.916 248.66 172.545C248.66 172.179 248.607 171.858 248.5 171.583C248.394 171.306 248.236 171.091 248.027 170.938C247.819 170.782 247.561 170.705 247.254 170.705C246.934 170.705 246.668 170.787 246.455 170.951C246.244 171.113 246.085 171.333 245.979 171.612C245.874 171.889 245.822 172.2 245.822 172.545C245.822 172.895 245.875 173.212 245.982 173.498C246.091 173.781 246.25 174.007 246.461 174.175C246.674 174.342 246.939 174.425 247.254 174.425ZM252.766 175.102C252.293 175.102 251.885 174.998 251.542 174.789C251.201 174.578 250.938 174.284 250.753 173.907C250.569 173.528 250.478 173.087 250.478 172.584C250.478 172.081 250.569 171.638 250.753 171.254C250.938 170.869 251.196 170.568 251.526 170.353C251.858 170.136 252.246 170.027 252.689 170.027C252.945 170.027 253.198 170.07 253.447 170.155C253.696 170.24 253.923 170.379 254.128 170.57C254.332 170.76 254.495 171.011 254.617 171.325C254.738 171.638 254.799 172.023 254.799 172.482V172.801H251.015V172.149H254.032C254.032 171.872 253.976 171.625 253.866 171.408C253.757 171.19 253.601 171.019 253.399 170.893C253.199 170.767 252.962 170.705 252.689 170.705C252.389 170.705 252.129 170.779 251.91 170.928C251.692 171.075 251.525 171.267 251.408 171.504C251.291 171.74 251.232 171.994 251.232 172.264V172.699C251.232 173.07 251.296 173.384 251.424 173.642C251.554 173.897 251.734 174.092 251.964 174.227C252.194 174.359 252.461 174.425 252.766 174.425C252.964 174.425 253.143 174.397 253.303 174.342C253.465 174.284 253.605 174.199 253.722 174.086C253.839 173.971 253.929 173.828 253.993 173.658L254.722 173.862C254.645 174.109 254.516 174.327 254.335 174.514C254.154 174.7 253.93 174.844 253.664 174.949C253.398 175.051 253.098 175.102 252.766 175.102ZM255.766 175V170.091H256.495V170.832H256.546C256.635 170.589 256.797 170.392 257.032 170.241C257.266 170.09 257.53 170.014 257.824 170.014C257.88 170.014 257.949 170.015 258.032 170.017C258.115 170.02 258.178 170.023 258.221 170.027V170.794C258.195 170.788 258.137 170.778 258.045 170.765C257.955 170.75 257.861 170.743 257.76 170.743C257.522 170.743 257.309 170.793 257.121 170.893C256.936 170.991 256.789 171.127 256.68 171.302C256.574 171.475 256.52 171.672 256.52 171.893V175H255.766ZM261.03 169.158V168.455H265.939V169.158H263.881V175H263.089V169.158H261.03ZM266.804 176.841C266.676 176.841 266.562 176.83 266.462 176.809C266.362 176.79 266.292 176.771 266.254 176.751L266.446 176.087C266.629 176.134 266.791 176.151 266.932 176.138C267.072 176.125 267.197 176.062 267.305 175.949C267.416 175.838 267.517 175.658 267.609 175.409L267.75 175.026L265.934 170.091H266.753L268.108 174.003H268.159L269.514 170.091H270.332L268.248 175.716C268.155 175.969 268.038 176.179 267.9 176.346C267.761 176.514 267.601 176.638 267.417 176.719C267.236 176.8 267.032 176.841 266.804 176.841ZM271.148 176.841V170.091H271.876V170.871H271.966C272.021 170.786 272.098 170.677 272.196 170.545C272.296 170.411 272.439 170.291 272.624 170.187C272.812 170.08 273.065 170.027 273.385 170.027C273.798 170.027 274.163 170.13 274.478 170.337C274.793 170.544 275.039 170.837 275.216 171.216C275.393 171.595 275.481 172.043 275.481 172.558C275.481 173.078 275.393 173.529 275.216 173.91C275.039 174.289 274.794 174.583 274.481 174.792C274.168 174.999 273.807 175.102 273.398 175.102C273.082 175.102 272.83 175.05 272.64 174.946C272.451 174.839 272.305 174.719 272.202 174.585C272.1 174.448 272.021 174.335 271.966 174.246H271.902V176.841H271.148ZM271.889 172.545C271.889 172.916 271.943 173.243 272.052 173.527C272.161 173.808 272.32 174.028 272.528 174.188C272.737 174.346 272.993 174.425 273.295 174.425C273.611 174.425 273.874 174.342 274.085 174.175C274.298 174.007 274.458 173.781 274.564 173.498C274.673 173.212 274.727 172.895 274.727 172.545C274.727 172.2 274.674 171.889 274.567 171.612C274.463 171.333 274.304 171.113 274.091 170.951C273.88 170.787 273.615 170.705 273.295 170.705C272.989 170.705 272.731 170.782 272.522 170.938C272.313 171.091 272.155 171.306 272.049 171.583C271.942 171.858 271.889 172.179 271.889 172.545ZM278.51 175.102C278.037 175.102 277.629 174.998 277.286 174.789C276.945 174.578 276.682 174.284 276.497 173.907C276.314 173.528 276.222 173.087 276.222 172.584C276.222 172.081 276.314 171.638 276.497 171.254C276.682 170.869 276.94 170.568 277.27 170.353C277.603 170.136 277.99 170.027 278.434 170.027C278.689 170.027 278.942 170.07 279.191 170.155C279.44 170.24 279.667 170.379 279.872 170.57C280.076 170.76 280.239 171.011 280.361 171.325C280.482 171.638 280.543 172.023 280.543 172.482V172.801H276.759V172.149H279.776C279.776 171.872 279.721 171.625 279.61 171.408C279.501 171.19 279.346 171.019 279.143 170.893C278.943 170.767 278.706 170.705 278.434 170.705C278.133 170.705 277.873 170.779 277.654 170.928C277.436 171.075 277.269 171.267 277.152 171.504C277.035 171.74 276.976 171.994 276.976 172.264V172.699C276.976 173.07 277.04 173.384 277.168 173.642C277.298 173.897 277.478 174.092 277.708 174.227C277.938 174.359 278.206 174.425 278.51 174.425C278.708 174.425 278.887 174.397 279.047 174.342C279.209 174.284 279.349 174.199 279.466 174.086C279.583 173.971 279.674 173.828 279.738 173.658L280.466 173.862C280.39 174.109 280.261 174.327 280.08 174.514C279.898 174.7 279.675 174.844 279.408 174.949C279.142 175.051 278.843 175.102 278.51 175.102Z" fill="#50555C"/>
<path d="M249.163 256.5C249.093 256.285 249 256.092 248.885 255.922C248.772 255.749 248.637 255.602 248.479 255.48C248.324 255.359 248.147 255.266 247.949 255.202C247.75 255.138 247.533 255.107 247.297 255.107C246.909 255.107 246.556 255.207 246.239 255.407C245.921 255.607 245.669 255.902 245.481 256.292C245.294 256.682 245.2 257.161 245.2 257.727C245.2 258.294 245.295 258.772 245.485 259.162C245.674 259.552 245.931 259.847 246.255 260.048C246.579 260.248 246.943 260.348 247.348 260.348C247.723 260.348 248.053 260.268 248.339 260.108C248.626 259.946 248.85 259.718 249.01 259.424C249.172 259.128 249.253 258.78 249.253 258.379L249.496 258.43H247.527V257.727H250.02V258.43C250.02 258.969 249.905 259.438 249.675 259.837C249.447 260.235 249.131 260.544 248.728 260.763C248.328 260.981 247.868 261.089 247.348 261.089C246.768 261.089 246.259 260.953 245.82 260.68C245.383 260.408 245.042 260.02 244.797 259.517C244.554 259.014 244.433 258.418 244.433 257.727C244.433 257.21 244.502 256.744 244.641 256.331C244.781 255.915 244.98 255.561 245.235 255.27C245.491 254.978 245.793 254.754 246.143 254.598C246.492 254.443 246.877 254.365 247.297 254.365C247.642 254.365 247.964 254.417 248.262 254.522C248.562 254.624 248.83 254.77 249.064 254.96C249.301 255.147 249.498 255.372 249.655 255.634C249.813 255.894 249.922 256.183 249.981 256.5H249.163ZM252.54 261.115C252.228 261.115 251.946 261.056 251.693 260.939C251.439 260.82 251.238 260.648 251.089 260.425C250.939 260.199 250.865 259.926 250.865 259.607C250.865 259.325 250.92 259.097 251.031 258.923C251.142 258.746 251.29 258.607 251.475 258.507C251.661 258.407 251.865 258.332 252.089 258.283C252.315 258.232 252.542 258.192 252.77 258.162C253.068 258.124 253.31 258.095 253.495 258.076C253.683 258.054 253.819 258.019 253.904 257.97C253.992 257.921 254.035 257.836 254.035 257.714V257.689C254.035 257.374 253.949 257.129 253.776 256.954C253.606 256.779 253.347 256.692 253 256.692C252.64 256.692 252.357 256.771 252.153 256.928C251.948 257.086 251.804 257.254 251.721 257.433L251.005 257.178C251.133 256.879 251.304 256.647 251.517 256.481C251.732 256.312 251.966 256.195 252.22 256.129C252.476 256.061 252.727 256.027 252.974 256.027C253.132 256.027 253.313 256.046 253.517 256.085C253.724 256.121 253.923 256.196 254.115 256.311C254.309 256.426 254.47 256.6 254.598 256.832C254.726 257.065 254.79 257.376 254.79 257.766V261H254.035V260.335H253.997C253.946 260.442 253.861 260.556 253.741 260.677C253.622 260.799 253.463 260.902 253.265 260.987C253.067 261.072 252.825 261.115 252.54 261.115ZM252.655 260.438C252.953 260.438 253.204 260.379 253.409 260.262C253.616 260.145 253.771 259.993 253.875 259.808C253.982 259.623 254.035 259.428 254.035 259.223V258.533C254.003 258.571 253.933 258.606 253.824 258.638C253.718 258.668 253.594 258.695 253.454 258.718C253.315 258.739 253.18 258.759 253.048 258.776C252.918 258.79 252.812 258.803 252.731 258.814C252.535 258.839 252.352 258.881 252.182 258.939C252.013 258.994 251.877 259.078 251.772 259.191C251.67 259.302 251.619 259.453 251.619 259.645C251.619 259.907 251.716 260.105 251.91 260.239C252.106 260.371 252.354 260.438 252.655 260.438ZM255.986 261V256.091H256.74V261H255.986ZM256.37 255.273C256.223 255.273 256.096 255.223 255.989 255.123C255.885 255.022 255.833 254.902 255.833 254.761C255.833 254.621 255.885 254.5 255.989 254.4C256.096 254.3 256.223 254.25 256.37 254.25C256.517 254.25 256.642 254.3 256.747 254.4C256.853 254.5 256.907 254.621 256.907 254.761C256.907 254.902 256.853 255.022 256.747 255.123C256.642 255.223 256.517 255.273 256.37 255.273ZM258.696 258.047V261H257.942V256.091H258.671V256.858H258.735C258.85 256.609 259.024 256.408 259.259 256.257C259.493 256.104 259.796 256.027 260.166 256.027C260.499 256.027 260.79 256.095 261.039 256.232C261.288 256.366 261.482 256.57 261.621 256.845C261.759 257.118 261.828 257.463 261.828 257.881V261H261.074V257.932C261.074 257.546 260.974 257.246 260.774 257.031C260.573 256.813 260.298 256.705 259.949 256.705C259.708 256.705 259.493 256.757 259.303 256.861C259.116 256.966 258.968 257.118 258.859 257.318C258.751 257.518 258.696 257.761 258.696 258.047ZM268.702 259.773V259.428C268.702 259.189 268.751 258.971 268.849 258.772C268.949 258.572 269.094 258.412 269.283 258.293C269.475 258.172 269.707 258.111 269.98 258.111C270.257 258.111 270.489 258.172 270.677 258.293C270.864 258.412 271.006 258.572 271.102 258.772C271.198 258.971 271.246 259.189 271.246 259.428V259.773C271.246 260.011 271.197 260.231 271.099 260.431C271.003 260.629 270.86 260.789 270.67 260.911C270.483 261.03 270.253 261.089 269.98 261.089C269.703 261.089 269.47 261.03 269.28 260.911C269.091 260.789 268.947 260.629 268.849 260.431C268.751 260.231 268.702 260.011 268.702 259.773ZM269.354 259.428V259.773C269.354 259.971 269.401 260.149 269.494 260.306C269.588 260.462 269.75 260.54 269.98 260.54C270.204 260.54 270.362 260.462 270.453 260.306C270.547 260.149 270.594 259.971 270.594 259.773V259.428C270.594 259.229 270.549 259.053 270.46 258.897C270.37 258.739 270.21 258.661 269.98 258.661C269.756 258.661 269.596 258.739 269.498 258.897C269.402 259.053 269.354 259.229 269.354 259.428ZM265.442 256.027V255.682C265.442 255.443 265.491 255.225 265.589 255.027C265.689 254.826 265.834 254.667 266.023 254.547C266.215 254.426 266.447 254.365 266.72 254.365C266.997 254.365 267.229 254.426 267.417 254.547C267.604 254.667 267.746 254.826 267.842 255.027C267.938 255.225 267.986 255.443 267.986 255.682V256.027C267.986 256.266 267.937 256.485 267.839 256.685C267.743 256.884 267.6 257.043 267.411 257.165C267.223 257.284 266.993 257.344 266.72 257.344C266.443 257.344 266.21 257.284 266.02 257.165C265.831 257.043 265.687 256.884 265.589 256.685C265.491 256.485 265.442 256.266 265.442 256.027ZM266.094 255.682V256.027C266.094 256.225 266.141 256.403 266.234 256.561C266.328 256.716 266.49 256.794 266.72 256.794C266.944 256.794 267.102 256.716 267.193 256.561C267.287 256.403 267.334 256.225 267.334 256.027V255.682C267.334 255.484 267.289 255.307 267.2 255.151C267.11 254.994 266.95 254.915 266.72 254.915C266.496 254.915 266.336 254.994 266.238 255.151C266.142 255.307 266.094 255.484 266.094 255.682ZM265.685 261L270.185 254.455H270.913L266.413 261H265.685Z" fill="#50555C"/>
<path d="M244.012 343V336.455H244.805V342.297H247.847V343H244.012ZM250.786 343.102C250.343 343.102 249.954 342.997 249.62 342.786C249.288 342.575 249.028 342.28 248.84 341.901C248.655 341.521 248.562 341.078 248.562 340.571C248.562 340.06 248.655 339.613 248.84 339.232C249.028 338.85 249.288 338.554 249.62 338.343C249.954 338.132 250.343 338.027 250.786 338.027C251.23 338.027 251.617 338.132 251.95 338.343C252.284 338.554 252.544 338.85 252.73 339.232C252.917 339.613 253.011 340.06 253.011 340.571C253.011 341.078 252.917 341.521 252.73 341.901C252.544 342.28 252.284 342.575 251.95 342.786C251.617 342.997 251.23 343.102 250.786 343.102ZM250.786 342.425C251.123 342.425 251.4 342.338 251.617 342.166C251.835 341.993 251.996 341.766 252.1 341.485C252.204 341.204 252.257 340.899 252.257 340.571C252.257 340.243 252.204 339.937 252.1 339.654C251.996 339.37 251.835 339.141 251.617 338.967C251.4 338.792 251.123 338.705 250.786 338.705C250.45 338.705 250.173 338.792 249.956 338.967C249.738 339.141 249.577 339.37 249.473 339.654C249.369 339.937 249.316 340.243 249.316 340.571C249.316 340.899 249.369 341.204 249.473 341.485C249.577 341.766 249.738 341.993 249.956 342.166C250.173 342.338 250.45 342.425 250.786 342.425ZM257.46 339.19L256.782 339.382C256.739 339.269 256.677 339.159 256.593 339.053C256.512 338.944 256.402 338.855 256.261 338.784C256.12 338.714 255.94 338.679 255.721 338.679C255.421 338.679 255.17 338.748 254.97 338.887C254.772 339.023 254.673 339.197 254.673 339.408C254.673 339.595 254.741 339.743 254.877 339.852C255.014 339.961 255.227 340.051 255.516 340.124L256.245 340.303C256.684 340.409 257.011 340.572 257.226 340.792C257.441 341.009 257.549 341.289 257.549 341.632C257.549 341.913 257.468 342.165 257.306 342.386C257.146 342.608 256.923 342.783 256.635 342.911C256.347 343.038 256.013 343.102 255.631 343.102C255.131 343.102 254.716 342.994 254.388 342.776C254.06 342.559 253.852 342.241 253.765 341.824L254.481 341.645C254.549 341.909 254.678 342.107 254.868 342.239C255.059 342.371 255.31 342.438 255.619 342.438C255.97 342.438 256.249 342.363 256.456 342.214C256.665 342.062 256.769 341.881 256.769 341.67C256.769 341.5 256.71 341.357 256.59 341.242C256.471 341.125 256.288 341.038 256.041 340.98L255.222 340.788C254.773 340.682 254.443 340.517 254.232 340.293C254.023 340.067 253.918 339.785 253.918 339.446C253.918 339.169 253.996 338.924 254.152 338.711C254.309 338.498 254.523 338.331 254.794 338.209C255.067 338.088 255.376 338.027 255.721 338.027C256.207 338.027 256.588 338.134 256.865 338.347C257.144 338.56 257.342 338.841 257.46 339.19ZM261.982 339.19L261.304 339.382C261.262 339.269 261.199 339.159 261.116 339.053C261.035 338.944 260.924 338.855 260.783 338.784C260.643 338.714 260.463 338.679 260.243 338.679C259.943 338.679 259.692 338.748 259.492 338.887C259.294 339.023 259.195 339.197 259.195 339.408C259.195 339.595 259.263 339.743 259.399 339.852C259.536 339.961 259.749 340.051 260.039 340.124L260.767 340.303C261.206 340.409 261.533 340.572 261.748 340.792C261.964 341.009 262.071 341.289 262.071 341.632C262.071 341.913 261.99 342.165 261.828 342.386C261.669 342.608 261.445 342.783 261.157 342.911C260.869 343.038 260.535 343.102 260.154 343.102C259.653 343.102 259.238 342.994 258.91 342.776C258.582 342.559 258.374 342.241 258.287 341.824L259.003 341.645C259.071 341.909 259.2 342.107 259.39 342.239C259.582 342.371 259.832 342.438 260.141 342.438C260.492 342.438 260.771 342.363 260.978 342.214C261.187 342.062 261.291 341.881 261.291 341.67C261.291 341.5 261.232 341.357 261.112 341.242C260.993 341.125 260.81 341.038 260.563 340.98L259.744 340.788C259.295 340.682 258.965 340.517 258.754 340.293C258.545 340.067 258.441 339.785 258.441 339.446C258.441 339.169 258.518 338.924 258.674 338.711C258.832 338.498 259.046 338.331 259.316 338.209C259.589 338.088 259.898 338.027 260.243 338.027C260.729 338.027 261.11 338.134 261.387 338.347C261.666 338.56 261.865 338.841 261.982 339.19ZM268.702 341.773V341.428C268.702 341.189 268.751 340.971 268.849 340.772C268.949 340.572 269.094 340.412 269.283 340.293C269.475 340.172 269.707 340.111 269.98 340.111C270.257 340.111 270.489 340.172 270.677 340.293C270.864 340.412 271.006 340.572 271.102 340.772C271.198 340.971 271.246 341.189 271.246 341.428V341.773C271.246 342.011 271.197 342.231 271.099 342.431C271.003 342.629 270.86 342.789 270.67 342.911C270.483 343.03 270.253 343.089 269.98 343.089C269.703 343.089 269.47 343.03 269.28 342.911C269.091 342.789 268.947 342.629 268.849 342.431C268.751 342.231 268.702 342.011 268.702 341.773ZM269.354 341.428V341.773C269.354 341.971 269.401 342.149 269.494 342.306C269.588 342.462 269.75 342.54 269.98 342.54C270.204 342.54 270.362 342.462 270.453 342.306C270.547 342.149 270.594 341.971 270.594 341.773V341.428C270.594 341.229 270.549 341.053 270.46 340.897C270.37 340.739 270.21 340.661 269.98 340.661C269.756 340.661 269.596 340.739 269.498 340.897C269.402 341.053 269.354 341.229 269.354 341.428ZM265.442 338.027V337.682C265.442 337.443 265.491 337.225 265.589 337.027C265.689 336.826 265.834 336.667 266.023 336.547C266.215 336.426 266.447 336.365 266.72 336.365C266.997 336.365 267.229 336.426 267.417 336.547C267.604 336.667 267.746 336.826 267.842 337.027C267.938 337.225 267.986 337.443 267.986 337.682V338.027C267.986 338.266 267.937 338.485 267.839 338.685C267.743 338.884 267.6 339.043 267.411 339.165C267.223 339.284 266.993 339.344 266.72 339.344C266.443 339.344 266.21 339.284 266.02 339.165C265.831 339.043 265.687 338.884 265.589 338.685C265.491 338.485 265.442 338.266 265.442 338.027ZM266.094 337.682V338.027C266.094 338.225 266.141 338.403 266.234 338.561C266.328 338.716 266.49 338.794 266.72 338.794C266.944 338.794 267.102 338.716 267.193 338.561C267.287 338.403 267.334 338.225 267.334 338.027V337.682C267.334 337.484 267.289 337.307 267.2 337.151C267.11 336.994 266.95 336.915 266.72 336.915C266.496 336.915 266.336 336.994 266.238 337.151C266.142 337.307 266.094 337.484 266.094 337.682ZM265.685 343L270.185 336.455H270.913L266.413 343H265.685Z" fill="#50555C"/>
<path d="M22.1776 175V168.455H26.1279V169.158H22.9702V171.369H25.9233V172.072H22.9702V174.297H26.179V175H22.1776ZM28.0285 172.047V175H27.2742V170.091H28.0029V170.858H28.0668C28.1819 170.609 28.3566 170.408 28.591 170.257C28.8253 170.104 29.1279 170.027 29.4986 170.027C29.831 170.027 30.1219 170.095 30.3712 170.232C30.6204 170.366 30.8143 170.57 30.9528 170.845C31.0913 171.118 31.1606 171.463 31.1606 171.881V175H30.4063V171.932C30.4063 171.546 30.3062 171.246 30.1059 171.031C29.9056 170.813 29.6307 170.705 29.2813 170.705C29.0405 170.705 28.8253 170.757 28.6357 170.861C28.4482 170.966 28.3001 171.118 28.1915 171.318C28.0828 171.518 28.0285 171.761 28.0285 172.047ZM34.4938 170.091V170.73H31.9498V170.091H34.4938ZM32.6912 168.915H33.4455V173.594C33.4455 173.807 33.4764 173.967 33.5382 174.073C33.6021 174.178 33.6831 174.248 33.7811 174.284C33.8812 174.318 33.9867 174.335 34.0975 174.335C34.1806 174.335 34.2488 174.331 34.302 174.322C34.3553 174.312 34.3979 174.303 34.4299 174.297L34.5833 174.974C34.5322 174.994 34.4608 175.013 34.3692 175.032C34.2775 175.053 34.1614 175.064 34.0208 175.064C33.8077 175.064 33.5989 175.018 33.3944 174.926C33.192 174.835 33.0236 174.695 32.8894 174.508C32.7573 174.32 32.6912 174.084 32.6912 173.798V168.915ZM35.4484 175V170.091H36.1771V170.832H36.2282C36.3177 170.589 36.4796 170.392 36.714 170.241C36.9484 170.09 37.2126 170.014 37.5066 170.014C37.562 170.014 37.6313 170.015 37.7144 170.017C37.7975 170.02 37.8603 170.023 37.9029 170.027V170.794C37.8774 170.788 37.8188 170.778 37.7272 170.765C37.6377 170.75 37.5428 170.743 37.4427 170.743C37.2041 170.743 36.991 170.793 36.8035 170.893C36.6181 170.991 36.4711 171.127 36.3624 171.302C36.2559 171.475 36.2026 171.672 36.2026 171.893V175H35.4484ZM39.2522 176.841C39.1244 176.841 39.0104 176.83 38.9103 176.809C38.8101 176.79 38.7409 176.771 38.7025 176.751L38.8943 176.087C39.0775 176.134 39.2394 176.151 39.3801 176.138C39.5207 176.125 39.6453 176.062 39.754 175.949C39.8648 175.838 39.966 175.658 40.0576 175.409L40.1983 175.026L38.3829 170.091H39.2011L40.5562 174.003H40.6073L41.9625 170.091H42.7806L40.6968 175.716C40.6031 175.969 40.487 176.179 40.3485 176.346C40.21 176.514 40.0491 176.638 39.8659 176.719C39.6848 176.8 39.4802 176.841 39.2522 176.841ZM46.0497 175V168.455H48.2614C48.7749 168.455 49.1946 168.547 49.5206 168.733C49.8487 168.916 50.0916 169.164 50.2493 169.477C50.407 169.79 50.4858 170.14 50.4858 170.526C50.4858 170.911 50.407 171.262 50.2493 171.577C50.0938 171.892 49.853 172.144 49.527 172.331C49.201 172.517 48.7834 172.609 48.2742 172.609H46.6889V171.906H48.2486C48.6001 171.906 48.8825 171.846 49.0955 171.724C49.3086 171.603 49.4631 171.439 49.559 171.232C49.657 171.023 49.706 170.788 49.706 170.526C49.706 170.263 49.657 170.029 49.559 169.822C49.4631 169.616 49.3075 169.454 49.0923 169.337C48.8771 169.217 48.5916 169.158 48.2358 169.158H46.8423V175H46.0497ZM51.4803 175V170.091H52.209V170.832H52.2602C52.3497 170.589 52.5116 170.392 52.746 170.241C52.9803 170.09 53.2445 170.014 53.5386 170.014C53.594 170.014 53.6632 170.015 53.7463 170.017C53.8294 170.02 53.8923 170.023 53.9349 170.027V170.794C53.9093 170.788 53.8507 170.778 53.7591 170.765C53.6696 170.75 53.5748 170.743 53.4747 170.743C53.236 170.743 53.023 170.793 52.8355 170.893C52.6501 170.991 52.5031 171.127 52.3944 171.302C52.2879 171.475 52.2346 171.672 52.2346 171.893V175H51.4803ZM54.649 175V170.091H55.4032V175H54.649ZM55.0325 169.273C54.8855 169.273 54.7587 169.223 54.6522 169.123C54.5478 169.022 54.4956 168.902 54.4956 168.761C54.4956 168.621 54.5478 168.5 54.6522 168.4C54.7587 168.3 54.8855 168.25 55.0325 168.25C55.1795 168.25 55.3052 168.3 55.4096 168.4C55.5162 168.5 55.5694 168.621 55.5694 168.761C55.5694 168.902 55.5162 169.022 55.4096 169.123C55.3052 169.223 55.1795 169.273 55.0325 169.273ZM58.599 175.102C58.1388 175.102 57.7425 174.994 57.4101 174.776C57.0777 174.559 56.822 174.26 56.6431 173.878C56.4641 173.497 56.3746 173.061 56.3746 172.571C56.3746 172.072 56.4662 171.632 56.6495 171.251C56.8348 170.868 57.0926 170.568 57.4229 170.353C57.7553 170.136 58.1431 170.027 58.5863 170.027C58.9314 170.027 59.2425 170.091 59.5195 170.219C59.7965 170.347 60.0234 170.526 60.2002 170.756C60.3771 170.986 60.4868 171.254 60.5294 171.561H59.7752C59.7176 171.337 59.5898 171.139 59.3916 170.967C59.1956 170.792 58.9314 170.705 58.599 170.705C58.305 170.705 58.0472 170.781 57.8256 170.935C57.6061 171.086 57.4346 171.3 57.311 171.577C57.1896 171.852 57.1289 172.175 57.1289 172.545C57.1289 172.925 57.1885 173.255 57.3078 173.536C57.4293 173.817 57.5997 174.036 57.8192 174.191C58.0408 174.347 58.3007 174.425 58.599 174.425C58.7951 174.425 58.973 174.391 59.1328 174.322C59.2926 174.254 59.4279 174.156 59.5387 174.028C59.6495 173.901 59.7283 173.747 59.7752 173.568H60.5294C60.4868 173.858 60.3813 174.119 60.213 174.351C60.0468 174.581 59.8263 174.765 59.5514 174.901C59.2787 175.035 58.9613 175.102 58.599 175.102ZM63.5103 175.102C63.0373 175.102 62.6293 174.998 62.2862 174.789C61.9453 174.578 61.6822 174.284 61.4968 173.907C61.3136 173.528 61.2219 173.087 61.2219 172.584C61.2219 172.081 61.3136 171.638 61.4968 171.254C61.6822 170.869 61.94 170.568 62.2702 170.353C62.6026 170.136 62.9904 170.027 63.4336 170.027C63.6893 170.027 63.9418 170.07 64.1911 170.155C64.4403 170.24 64.6673 170.379 64.8718 170.57C65.0763 170.76 65.2393 171.011 65.3608 171.325C65.4822 171.638 65.543 172.023 65.543 172.482V172.801H61.7589V172.149H64.7759C64.7759 171.872 64.7205 171.625 64.6097 171.408C64.5011 171.19 64.3455 171.019 64.1431 170.893C63.9428 170.767 63.7063 170.705 63.4336 170.705C63.1332 170.705 62.8732 170.779 62.6538 170.928C62.4364 171.075 62.2692 171.267 62.152 171.504C62.0348 171.74 61.9762 171.994 61.9762 172.264V172.699C61.9762 173.07 62.0401 173.384 62.168 173.642C62.2979 173.897 62.478 174.092 62.7081 174.227C62.9382 174.359 63.2056 174.425 63.5103 174.425C63.7085 174.425 63.8874 174.397 64.0472 174.342C64.2092 174.284 64.3487 174.199 64.4659 174.086C64.5831 173.971 64.6737 173.828 64.7376 173.658L65.4663 173.862C65.3896 174.109 65.2607 174.327 65.0795 174.514C64.8984 174.7 64.6747 174.844 64.4084 174.949C64.142 175.051 63.8427 175.102 63.5103 175.102Z" fill="#50555C"/>
<path d="M22.6634 255.158V254.455H27.5725V255.158H25.5142V261H24.7216V255.158H22.6634ZM29.2901 261.115C28.979 261.115 28.6967 261.056 28.4432 260.939C28.1896 260.82 27.9883 260.648 27.8391 260.425C27.69 260.199 27.6154 259.926 27.6154 259.607C27.6154 259.325 27.6708 259.097 27.7816 258.923C27.8924 258.746 28.0405 258.607 28.2258 258.507C28.4112 258.407 28.6157 258.332 28.8395 258.283C29.0653 258.232 29.2922 258.192 29.5202 258.162C29.8185 258.124 30.0603 258.095 30.2457 258.076C30.4332 258.054 30.5696 258.019 30.6548 257.97C30.7422 257.921 30.7858 257.836 30.7858 257.714V257.689C30.7858 257.374 30.6995 257.129 30.527 256.954C30.3565 256.779 30.0976 256.692 29.7503 256.692C29.3902 256.692 29.1079 256.771 28.9034 256.928C28.6988 257.086 28.555 257.254 28.4719 257.433L27.756 257.178C27.8838 256.879 28.0543 256.647 28.2674 256.481C28.4826 256.312 28.7169 256.195 28.9705 256.129C29.2262 256.061 29.4776 256.027 29.7248 256.027C29.8824 256.027 30.0635 256.046 30.2681 256.085C30.4748 256.121 30.674 256.196 30.8657 256.311C31.0596 256.426 31.2205 256.6 31.3483 256.832C31.4762 257.065 31.5401 257.376 31.5401 257.766V261H30.7858V260.335H30.7475C30.6963 260.442 30.6111 260.556 30.4918 260.677C30.3725 260.799 30.2137 260.902 30.0156 260.987C29.8174 261.072 29.5756 261.115 29.2901 261.115ZM29.4052 260.438C29.7035 260.438 29.9549 260.379 30.1594 260.262C30.3661 260.145 30.5216 259.993 30.626 259.808C30.7326 259.623 30.7858 259.428 30.7858 259.223V258.533C30.7539 258.571 30.6836 258.606 30.5749 258.638C30.4684 258.668 30.3448 258.695 30.2042 258.718C30.0657 258.739 29.9304 258.759 29.7983 258.776C29.6683 258.79 29.5628 258.803 29.4819 258.814C29.2858 258.839 29.1026 258.881 28.9321 258.939C28.7638 258.994 28.6275 259.078 28.5231 259.191C28.4208 259.302 28.3696 259.453 28.3696 259.645C28.3696 259.907 28.4666 260.105 28.6605 260.239C28.8565 260.371 29.1047 260.438 29.4052 260.438ZM33.4399 259.21L33.4271 258.277H33.5805L35.7283 256.091H36.6615L34.3731 258.405H34.3092L33.4399 259.21ZM32.7368 261V254.455H33.491V261H32.7368ZM35.8561 261L33.9385 258.571L34.4754 258.047L36.8149 261H35.8561ZM39.3084 261.102C38.8354 261.102 38.4273 260.998 38.0843 260.789C37.7434 260.578 37.4803 260.284 37.2949 259.907C37.1117 259.528 37.02 259.087 37.02 258.584C37.02 258.081 37.1117 257.638 37.2949 257.254C37.4803 256.869 37.7381 256.568 38.0683 256.353C38.4007 256.136 38.7885 256.027 39.2317 256.027C39.4874 256.027 39.7398 256.07 39.9891 256.155C40.2384 256.24 40.4653 256.379 40.6699 256.57C40.8744 256.76 41.0374 257.011 41.1589 257.325C41.2803 257.638 41.3411 258.023 41.3411 258.482V258.801H37.557V258.149H40.574C40.574 257.872 40.5186 257.625 40.4078 257.408C40.2992 257.19 40.1436 257.019 39.9412 256.893C39.7409 256.767 39.5044 256.705 39.2317 256.705C38.9313 256.705 38.6713 256.779 38.4518 256.928C38.2345 257.075 38.0673 257.267 37.9501 257.504C37.8329 257.74 37.7743 257.994 37.7743 258.264V258.699C37.7743 259.07 37.8382 259.384 37.9661 259.642C38.096 259.897 38.2761 260.092 38.5062 260.227C38.7363 260.359 39.0037 260.425 39.3084 260.425C39.5065 260.425 39.6855 260.397 39.8453 260.342C40.0072 260.284 40.1468 260.199 40.264 260.086C40.3812 259.971 40.4717 259.828 40.5357 259.658L41.2643 259.862C41.1876 260.109 41.0587 260.327 40.8776 260.514C40.6965 260.7 40.4728 260.844 40.2065 260.949C39.9401 261.051 39.6408 261.102 39.3084 261.102ZM44.7619 261V254.455H46.9736C47.4871 254.455 47.9068 254.547 48.2328 254.733C48.561 254.916 48.8039 255.164 48.9615 255.477C49.1192 255.79 49.198 256.14 49.198 256.526C49.198 256.911 49.1192 257.262 48.9615 257.577C48.806 257.892 48.5652 258.144 48.2392 258.331C47.9132 258.517 47.4956 258.609 46.9864 258.609H45.4012V257.906H46.9608C47.3124 257.906 47.5947 257.846 47.8078 257.724C48.0208 257.603 48.1753 257.439 48.2712 257.232C48.3692 257.023 48.4182 256.788 48.4182 256.526C48.4182 256.263 48.3692 256.029 48.2712 255.822C48.1753 255.616 48.0198 255.454 47.8046 255.337C47.5894 255.217 47.3039 255.158 46.948 255.158H45.5546V261H44.7619ZM50.1926 261V256.091H50.9213V256.832H50.9724C51.0619 256.589 51.2238 256.392 51.4582 256.241C51.6926 256.09 51.9568 256.014 52.2508 256.014C52.3062 256.014 52.3755 256.015 52.4585 256.017C52.5416 256.02 52.6045 256.023 52.6471 256.027V256.794C52.6215 256.788 52.563 256.778 52.4713 256.765C52.3818 256.75 52.287 256.743 52.1869 256.743C51.9482 256.743 51.7352 256.793 51.5477 256.893C51.3623 256.991 51.2153 257.127 51.1066 257.302C51.0001 257.475 50.9468 257.672 50.9468 257.893V261H50.1926ZM55.2061 261.102C54.7629 261.102 54.3741 260.997 54.0396 260.786C53.7072 260.575 53.4472 260.28 53.2597 259.901C53.0744 259.521 52.9817 259.078 52.9817 258.571C52.9817 258.06 53.0744 257.613 53.2597 257.232C53.4472 256.85 53.7072 256.554 54.0396 256.343C54.3741 256.132 54.7629 256.027 55.2061 256.027C55.6493 256.027 56.0371 256.132 56.3695 256.343C56.704 256.554 56.9639 256.85 57.1493 257.232C57.3368 257.613 57.4305 258.06 57.4305 258.571C57.4305 259.078 57.3368 259.521 57.1493 259.901C56.9639 260.28 56.704 260.575 56.3695 260.786C56.0371 260.997 55.6493 261.102 55.2061 261.102ZM55.2061 260.425C55.5428 260.425 55.8197 260.338 56.0371 260.166C56.2544 259.993 56.4153 259.766 56.5197 259.485C56.6241 259.204 56.6763 258.899 56.6763 258.571C56.6763 258.243 56.6241 257.937 56.5197 257.654C56.4153 257.37 56.2544 257.141 56.0371 256.967C55.8197 256.792 55.5428 256.705 55.2061 256.705C54.8695 256.705 54.5925 256.792 54.3751 256.967C54.1578 257.141 53.9969 257.37 53.8925 257.654C53.7881 257.937 53.7359 258.243 53.7359 258.571C53.7359 258.899 53.7881 259.204 53.8925 259.485C53.9969 259.766 54.1578 259.993 54.3751 260.166C54.5925 260.338 54.8695 260.425 55.2061 260.425ZM60.588 256.091V256.73H57.9417V256.091H60.588ZM58.7343 261V255.413C58.7343 255.132 58.8003 254.898 58.9324 254.71C59.0645 254.523 59.2361 254.382 59.447 254.288C59.6579 254.195 59.8806 254.148 60.115 254.148C60.3003 254.148 60.4516 254.163 60.5688 254.192C60.686 254.222 60.7734 254.25 60.8309 254.276L60.6136 254.928C60.5752 254.915 60.5219 254.899 60.4538 254.88C60.3877 254.86 60.3003 254.851 60.1917 254.851C59.9424 254.851 59.7623 254.914 59.6515 255.039C59.5429 255.165 59.4886 255.349 59.4886 255.592V261H58.7343ZM61.4651 261V256.091H62.2193V261H61.4651ZM61.8486 255.273C61.7016 255.273 61.5748 255.223 61.4683 255.123C61.3639 255.022 61.3117 254.902 61.3117 254.761C61.3117 254.621 61.3639 254.5 61.4683 254.4C61.5748 254.3 61.7016 254.25 61.8486 254.25C61.9956 254.25 62.1213 254.3 62.2257 254.4C62.3323 254.5 62.3855 254.621 62.3855 254.761C62.3855 254.902 62.3323 255.022 62.2257 255.123C62.1213 255.223 61.9956 255.273 61.8486 255.273ZM65.5558 256.091V256.73H63.0117V256.091H65.5558ZM63.7532 254.915H64.5075V259.594C64.5075 259.807 64.5384 259.967 64.6001 260.073C64.6641 260.178 64.745 260.248 64.843 260.284C64.9432 260.318 65.0487 260.335 65.1594 260.335C65.2425 260.335 65.3107 260.331 65.364 260.322C65.4173 260.312 65.4599 260.303 65.4918 260.297L65.6452 260.974C65.5941 260.994 65.5227 261.013 65.4311 261.032C65.3395 261.053 65.2234 261.064 65.0827 261.064C64.8697 261.064 64.6609 261.018 64.4563 260.926C64.2539 260.835 64.0856 260.695 63.9513 260.508C63.8192 260.32 63.7532 260.084 63.7532 259.798V254.915Z" fill="#50555C"/>
<path d="M27.6334 338.091C27.5951 337.767 27.4396 337.516 27.1668 337.337C26.8941 337.158 26.5596 337.068 26.1633 337.068C25.8735 337.068 25.62 337.115 25.4026 337.209C25.1874 337.303 25.0191 337.431 24.8977 337.596C24.7783 337.76 24.7187 337.946 24.7187 338.155C24.7187 338.33 24.7602 338.48 24.8433 338.605C24.9285 338.729 25.0372 338.832 25.1693 338.915C25.3014 338.996 25.4399 339.064 25.5848 339.117C25.7297 339.168 25.8629 339.21 25.9843 339.241L26.6491 339.42C26.8195 339.465 27.0092 339.527 27.218 339.606C27.4289 339.685 27.6303 339.792 27.822 339.929C28.0159 340.063 28.1757 340.235 28.3014 340.446C28.4271 340.657 28.49 340.916 28.49 341.223C28.49 341.577 28.3973 341.896 28.2119 342.182C28.0287 342.467 27.7602 342.694 27.4065 342.863C27.055 343.031 26.6278 343.115 26.1249 343.115C25.6562 343.115 25.2503 343.039 24.9072 342.888C24.5663 342.737 24.2979 342.526 24.1018 342.255C23.9079 341.985 23.7982 341.67 23.7727 341.312H24.5908C24.6121 341.56 24.6952 341.764 24.8401 341.926C24.9871 342.086 25.1725 342.205 25.3962 342.284C25.6221 342.361 25.865 342.399 26.1249 342.399C26.4275 342.399 26.6991 342.35 26.9399 342.252C27.1807 342.152 27.3714 342.013 27.512 341.837C27.6526 341.658 27.7229 341.449 27.7229 341.21C27.7229 340.993 27.6622 340.816 27.5408 340.68C27.4193 340.543 27.2595 340.433 27.0614 340.347C26.8632 340.262 26.6491 340.187 26.419 340.124L25.6136 339.893C25.1022 339.746 24.6974 339.537 24.3991 339.264C24.1008 338.991 23.9516 338.634 23.9516 338.193C23.9516 337.827 24.0507 337.507 24.2489 337.234C24.4491 336.96 24.7176 336.746 25.0543 336.595C25.393 336.442 25.7712 336.365 26.1888 336.365C26.6107 336.365 26.9857 336.441 27.3138 336.592C27.642 336.741 27.9019 336.946 28.0937 337.206C28.2876 337.466 28.3898 337.761 28.4005 338.091H27.6334ZM31.6458 338.091V338.73H29.1018V338.091H31.6458ZM29.8433 336.915H30.5975V341.594C30.5975 341.807 30.6284 341.967 30.6902 342.073C30.7541 342.178 30.8351 342.248 30.9331 342.284C31.0333 342.318 31.1387 342.335 31.2495 342.335C31.3326 342.335 31.4008 342.331 31.4541 342.322C31.5073 342.312 31.5499 342.303 31.5819 342.297L31.7353 342.974C31.6842 342.994 31.6128 343.013 31.5212 343.032C31.4296 343.053 31.3134 343.064 31.1728 343.064C30.9598 343.064 30.7509 343.018 30.5464 342.926C30.344 342.835 30.1757 342.695 30.0414 342.508C29.9093 342.32 29.8433 342.084 29.8433 341.798V336.915ZM34.542 343.102C34.0988 343.102 33.71 342.997 33.3755 342.786C33.0431 342.575 32.7831 342.28 32.5956 341.901C32.4103 341.521 32.3176 341.078 32.3176 340.571C32.3176 340.06 32.4103 339.613 32.5956 339.232C32.7831 338.85 33.0431 338.554 33.3755 338.343C33.71 338.132 34.0988 338.027 34.542 338.027C34.9852 338.027 35.373 338.132 35.7054 338.343C36.0399 338.554 36.2998 338.85 36.4852 339.232C36.6727 339.613 36.7664 340.06 36.7664 340.571C36.7664 341.078 36.6727 341.521 36.4852 341.901C36.2998 342.28 36.0399 342.575 35.7054 342.786C35.373 342.997 34.9852 343.102 34.542 343.102ZM34.542 342.425C34.8786 342.425 35.1556 342.338 35.373 342.166C35.5903 341.993 35.7512 341.766 35.8556 341.485C35.96 341.204 36.0122 340.899 36.0122 340.571C36.0122 340.243 35.96 339.937 35.8556 339.654C35.7512 339.37 35.5903 339.141 35.373 338.967C35.1556 338.792 34.8786 338.705 34.542 338.705C34.2054 338.705 33.9284 338.792 33.711 338.967C33.4937 339.141 33.3328 339.37 33.2284 339.654C33.124 339.937 33.0718 340.243 33.0718 340.571C33.0718 340.899 33.124 341.204 33.2284 341.485C33.3328 341.766 33.4937 341.993 33.711 342.166C33.9284 342.338 34.2054 342.425 34.542 342.425ZM37.7378 344.841V338.091H38.4665V338.871H38.556C38.6114 338.786 38.6881 338.677 38.7861 338.545C38.8862 338.411 39.029 338.291 39.2144 338.187C39.4019 338.08 39.6554 338.027 39.975 338.027C40.3884 338.027 40.7527 338.13 41.0681 338.337C41.3834 338.544 41.6295 338.837 41.8063 339.216C41.9832 339.595 42.0716 340.043 42.0716 340.558C42.0716 341.078 41.9832 341.529 41.8063 341.91C41.6295 342.289 41.3845 342.583 41.0713 342.792C40.758 342.999 40.3969 343.102 39.9878 343.102C39.6725 343.102 39.42 343.05 39.2303 342.946C39.0407 342.839 38.8948 342.719 38.7925 342.585C38.6902 342.448 38.6114 342.335 38.556 342.246H38.4921V344.841H37.7378ZM38.4793 340.545C38.4793 340.916 38.5336 341.243 38.6423 341.527C38.7509 341.808 38.9097 342.028 39.1185 342.188C39.3273 342.346 39.583 342.425 39.8855 342.425C40.2009 342.425 40.464 342.342 40.6749 342.175C40.888 342.007 41.0478 341.781 41.1543 341.498C41.263 341.212 41.3173 340.895 41.3173 340.545C41.3173 340.2 41.2641 339.889 41.1575 339.612C41.0531 339.333 40.8944 339.113 40.6813 338.951C40.4704 338.787 40.2051 338.705 39.8855 338.705C39.5787 338.705 39.3209 338.782 39.1121 338.938C38.9033 339.091 38.7456 339.306 38.6391 339.583C38.5325 339.858 38.4793 340.179 38.4793 340.545ZM45.4957 343V336.455H46.2883V342.297H49.3309V343H45.4957ZM52.2702 343.102C51.8271 343.102 51.4382 342.997 51.1037 342.786C50.7713 342.575 50.5114 342.28 50.3239 341.901C50.1385 341.521 50.0458 341.078 50.0458 340.571C50.0458 340.06 50.1385 339.613 50.3239 339.232C50.5114 338.85 50.7713 338.554 51.1037 338.343C51.4382 338.132 51.8271 338.027 52.2702 338.027C52.7134 338.027 53.1012 338.132 53.4336 338.343C53.7681 338.554 54.0281 338.85 54.2134 339.232C54.4009 339.613 54.4947 340.06 54.4947 340.571C54.4947 341.078 54.4009 341.521 54.2134 341.901C54.0281 342.28 53.7681 342.575 53.4336 342.786C53.1012 342.997 52.7134 343.102 52.2702 343.102ZM52.2702 342.425C52.6069 342.425 52.8839 342.338 53.1012 342.166C53.3185 341.993 53.4794 341.766 53.5838 341.485C53.6882 341.204 53.7404 340.899 53.7404 340.571C53.7404 340.243 53.6882 339.937 53.5838 339.654C53.4794 339.37 53.3185 339.141 53.1012 338.967C52.8839 338.792 52.6069 338.705 52.2702 338.705C51.9336 338.705 51.6566 338.792 51.4393 338.967C51.2219 339.141 51.0611 339.37 50.9567 339.654C50.8523 339.937 50.8001 340.243 50.8001 340.571C50.8001 340.899 50.8523 341.204 50.9567 341.485C51.0611 341.766 51.2219 341.993 51.4393 342.166C51.6566 342.338 51.9336 342.425 52.2702 342.425ZM58.9433 339.19L58.2658 339.382C58.2231 339.269 58.1603 339.159 58.0772 339.053C57.9962 338.944 57.8854 338.855 57.7448 338.784C57.6042 338.714 57.4241 338.679 57.2047 338.679C56.9043 338.679 56.6539 338.748 56.4536 338.887C56.2555 339.023 56.1564 339.197 56.1564 339.408C56.1564 339.595 56.2246 339.743 56.3609 339.852C56.4973 339.961 56.7104 340.051 57.0001 340.124L57.7288 340.303C58.1677 340.409 58.4948 340.572 58.71 340.792C58.9252 341.009 59.0328 341.289 59.0328 341.632C59.0328 341.913 58.9518 342.165 58.7899 342.386C58.6301 342.608 58.4064 342.783 58.1187 342.911C57.8311 343.038 57.4966 343.102 57.1152 343.102C56.6145 343.102 56.2001 342.994 55.8719 342.776C55.5438 342.559 55.3361 342.241 55.2487 341.824L55.9646 341.645C56.0328 341.909 56.1617 342.107 56.3513 342.239C56.5431 342.371 56.7935 342.438 57.1024 342.438C57.454 342.438 57.7331 342.363 57.9398 342.214C58.1486 342.062 58.253 341.881 58.253 341.67C58.253 341.5 58.1933 341.357 58.074 341.242C57.9547 341.125 57.7714 341.038 57.5243 340.98L56.7061 340.788C56.2565 340.682 55.9263 340.517 55.7153 340.293C55.5065 340.067 55.4021 339.785 55.4021 339.446C55.4021 339.169 55.4799 338.924 55.6354 338.711C55.7931 338.498 56.0072 338.331 56.2778 338.209C56.5506 338.088 56.8595 338.027 57.2047 338.027C57.6905 338.027 58.0719 338.134 58.3489 338.347C58.628 338.56 58.8261 338.841 58.9433 339.19ZM63.4655 339.19L62.7879 339.382C62.7453 339.269 62.6824 339.159 62.5993 339.053C62.5184 338.944 62.4076 338.855 62.267 338.784C62.1263 338.714 61.9463 338.679 61.7268 338.679C61.4264 338.679 61.176 338.748 60.9758 338.887C60.7776 339.023 60.6785 339.197 60.6785 339.408C60.6785 339.595 60.7467 339.743 60.8831 339.852C61.0194 339.961 61.2325 340.051 61.5223 340.124L62.251 340.303C62.6899 340.409 63.017 340.572 63.2322 340.792C63.4474 341.009 63.555 341.289 63.555 341.632C63.555 341.913 63.474 342.165 63.3121 342.386C63.1523 342.608 62.9285 342.783 62.6409 342.911C62.3532 343.038 62.0187 343.102 61.6373 343.102C61.1366 343.102 60.7222 342.994 60.3941 342.776C60.066 342.559 59.8582 342.241 59.7709 341.824L60.4868 341.645C60.555 341.909 60.6839 342.107 60.8735 342.239C61.0653 342.371 61.3156 342.438 61.6246 342.438C61.9761 342.438 62.2552 342.363 62.4619 342.214C62.6707 342.062 62.7751 341.881 62.7751 341.67C62.7751 341.5 62.7155 341.357 62.5961 341.242C62.4768 341.125 62.2936 341.038 62.0464 340.98L61.2282 340.788C60.7787 340.682 60.4484 340.517 60.2375 340.293C60.0287 340.067 59.9243 339.785 59.9243 339.446C59.9243 339.169 60.002 338.924 60.1576 338.711C60.3153 338.498 60.5294 338.331 60.8 338.209C61.0727 338.088 61.3817 338.027 61.7268 338.027C62.2126 338.027 62.594 338.134 62.871 338.347C63.1501 338.56 63.3483 338.841 63.4655 339.19Z" fill="#50555C"/>
<path d="M37.8672 28.0889C40.5552 28.0889 42.1519 25.9868 42.1519 22.4272C42.1519 21.0869 41.8955 19.959 41.4048 19.0874C40.6943 17.7324 39.4712 17 37.9258 17C35.626 17 34 18.5454 34 20.7134C34 22.7495 35.4648 24.229 37.479 24.229C38.7168 24.229 39.7202 23.6504 40.2183 22.647H40.2402C40.2402 22.647 40.2695 22.647 40.2769 22.647C40.2915 22.647 40.3428 22.647 40.3428 22.647C40.3428 25.064 39.4272 26.5068 37.8818 26.5068C36.9736 26.5068 36.2705 26.0088 36.0288 25.2104H34.1465C34.4614 26.9463 35.9336 28.0889 37.8672 28.0889ZM37.9331 22.7275C36.7173 22.7275 35.853 21.8633 35.853 20.6548C35.853 19.4756 36.7612 18.5747 37.9404 18.5747C39.1196 18.5747 40.0278 19.4902 40.0278 20.6841C40.0278 21.8633 39.1416 22.7275 37.9331 22.7275Z" fill="white"/>
<path d="M45.243 27.9863C45.9388 27.9863 46.4148 27.4883 46.4148 26.8291C46.4148 26.1626 45.9388 25.6719 45.243 25.6719C44.5545 25.6719 44.0711 26.1626 44.0711 26.8291C44.0711 27.4883 44.5545 27.9863 45.243 27.9863ZM45.243 22.4932C45.9388 22.4932 46.4148 22.0024 46.4148 21.3433C46.4148 20.6768 45.9388 20.186 45.243 20.186C44.5545 20.186 44.0711 20.6768 44.0711 21.3433C44.0711 22.0024 44.5545 22.4932 45.243 22.4932Z" fill="white"/>
<path d="M53.2706 27.8325H55.0797V25.8623H56.5079V24.2656H55.0797V17.2637H52.4137C50.546 20.0762 49.0592 22.4272 48.107 24.1777V25.8623H53.2706V27.8325ZM49.8575 24.1997C51.088 22.0317 52.1866 20.2959 53.1974 18.8018H53.2999V24.3096H49.8575V24.1997Z" fill="white"/>
<path d="M60.5365 27.8325H62.4262V17.2637H60.5438L57.7826 19.1973V21.0137L60.412 19.168H60.5365V27.8325Z" fill="white"/>
</g>
<rect x="0.5" y="0.5" width="374" height="412" rx="14.5" stroke="url(#paint2_linear_238_1619)" stroke-opacity="0.4"/>
<defs>
<linearGradient id="paint0_linear_238_1619" x1="188.5" y1="99" x2="197.197" y2="146.68" gradientUnits="userSpaceOnUse">
<stop/>
<stop offset="1"/>
</linearGradient>
<radialGradient id="paint1_angular_238_1619" cx="0" cy="0" r="1" gradientUnits="userSpaceOnUse" gradientTransform="translate(188.5 119) rotate(90) scale(20 177.5)">
<stop stop-color="#03EED8"/>
<stop offset="1" stop-color="#EC1010" stop-opacity="0.92"/>
</radialGradient>
<linearGradient id="paint2_linear_238_1619" x1="187.5" y1="0" x2="187.5" y2="413" gradientUnits="userSpaceOnUse">
<stop stop-color="#03EED8"/>
<stop offset="1" stop-color="#03EED8" stop-opacity="0"/>
</linearGradient>
<clipPath id="clip0_238_1619">
<rect width="375" height="413" rx="15" fill="white"/>
</clipPath>
<clipPath id="clip1_238_1619">
<rect x="148" y="181" width="212" height="46" rx="8" fill="white"/>
</clipPath>
<clipPath id="clip2_238_1619">
<rect width="20" height="21.5" fill="white" transform="translate(199 195)"/>
</clipPath>
<clipPath id="clip3_238_1619">
<rect x="148" y="267" width="212" height="46" rx="8" fill="white"/>
</clipPath>
</defs>
</svg>
